<svg width="19" height="19" viewBox="0 0 19 19" fill="none" xmlns="http://www.w3.org/2000/svg">
<path d="M3.6575 14.345C4.465 13.7275 5.3675 13.2405 6.365 12.8839C7.3625 12.5273 8.4075 12.3494 9.5 12.35C10.5925 12.35 11.6375 12.5283 12.635 12.8848C13.6325 13.2414 14.535 13.7281 15.3425 14.345C15.8967 13.6958 16.3283 12.9596 16.6374 12.1362C16.9464 11.3129 17.1006 10.4342 17.1 9.5C17.1 7.39417 16.3599 5.60088 14.8798 4.12015C13.3997 2.63942 11.6065 1.89937 9.5 1.9C7.39417 1.9 5.60088 2.64005 4.12015 4.12015C2.63942 5.60025 1.89937 7.39353 1.9 9.5C1.9 10.4342 2.05453 11.3129 2.3636 12.1362C2.67267 12.9596 3.10397 13.6958 3.6575 14.345ZM9.5 10.45C8.56583 10.45 7.77797 10.1295 7.1364 9.4886C6.49483 8.84767 6.17437 8.0598 6.175 7.125C6.175 6.19083 6.49547 5.40297 7.1364 4.7614C7.77733 4.11983 8.5652 3.79937 9.5 3.8C10.4342 3.8 11.222 4.12047 11.8636 4.7614C12.5052 5.40233 12.8256 6.1902 12.825 7.125C12.825 8.05917 12.5045 8.84703 11.8636 9.4886C11.2227 10.1302 10.4348 10.4506 9.5 10.45ZM9.5 19C8.18583 19 6.95083 18.7505 5.795 18.2514C4.63917 17.7523 3.63375 17.0756 2.77875 16.2212C1.92375 15.3663 1.24703 14.3608 0.7486 13.205C0.250167 12.0492 0.000633333 10.8142 0 9.5C0 8.18583 0.249533 6.95083 0.7486 5.795C1.24767 4.63917 1.92438 3.63375 2.77875 2.77875C3.63375 1.92375 4.63917 1.24703 5.795 0.7486C6.95083 0.250167 8.18583 0.000633333 9.5 0C10.8142 0 12.0492 0.249533 13.205 0.7486C14.3608 1.24767 15.3663 1.92438 16.2212 2.77875C17.0763 3.63375 17.7533 4.63917 18.2523 5.795C18.7514 6.95083 19.0006 8.18583 19 9.5C19 10.8142 18.7505 12.0492 18.2514 13.205C17.7523 14.3608 17.0756 15.3663 16.2212 16.2212C15.3663 17.0763 14.3608 17.7533 13.205 18.2523C12.0492 18.7514 10.8142 19.0006 9.5 19ZM9.5 17.1C10.3392 17.1 11.1308 16.9771 11.875 16.7314C12.6192 16.4857 13.3 16.1335 13.9175 15.675C13.3 15.2158 12.6192 14.8634 11.875 14.6176C11.1308 14.3719 10.3392 14.2494 9.5 14.25C8.66083 14.25 7.86917 14.3729 7.125 14.6186C6.38083 14.8643 5.7 15.2165 5.0825 15.675C5.7 16.1342 6.38083 16.4866 7.125 16.7323C7.86917 16.9781 8.66083 17.1006 9.5 17.1ZM9.5 8.55C9.91167 8.55 10.2521 8.41542 10.5212 8.14625C10.7904 7.87708 10.925 7.53667 10.925 7.125C10.925 6.71333 10.7904 6.37292 10.5212 6.10375C10.2521 5.83458 9.91167 5.7 9.5 5.7C9.08833 5.7 8.74792 5.83458 8.47875 6.10375C8.20958 6.37292 8.075 6.71333 8.075 7.125C8.075 7.53667 8.20958 7.87708 8.47875 8.14625C8.74792 8.41542 9.08833 8.55 9.5 8.55Z" fill="white"/>
</svg>
