<svg width="23" height="23" viewBox="0 0 23 23" fill="none" xmlns="http://www.w3.org/2000/svg">
<g clip-path="url(#clip0_223_445)">
<path d="M11.5 0C17.8512 0 23 5.14884 23 11.5C23 17.8512 17.8512 23 11.5 23C5.14884 23 0 17.8512 0 11.5C0 5.14884 5.14884 0 11.5 0ZM17.946 5.05402H5.05398V7.33604H6.45735V8.59146H5.05398V10.8723H6.45735V12.1277H5.05398V14.4085H6.45735V15.664H5.05398V17.9466H17.946V5.05402ZM12.202 7.30549C13.2311 7.30549 14.0647 8.14035 14.0647 9.16945C14.0647 9.89876 13.6461 10.5297 13.0357 10.8358L15.4208 12.2637H15.4501V14.278H8.95382V12.2637H8.98317L11.3682 10.8358C10.7578 10.5297 10.3392 9.89876 10.3392 9.16945C10.3392 8.14035 11.1729 7.30549 12.202 7.30549Z" fill="white"/>
</g>
<defs>
<clipPath id="clip0_223_445">
<rect width="23" height="23" fill="white" transform="matrix(-1 0 0 1 23 0)"/>
</clipPath>
</defs>
</svg>
