<svg width="13" height="7" viewBox="0 0 13 7" fill="none" xmlns="http://www.w3.org/2000/svg">
<path d="M6.50452 4.69435L11.4203 0.246702C11.5063 0.168517 11.6085 0.106472 11.7211 0.0641339C11.8337 0.0217958 11.9545 0 12.0764 0C12.1984 0 12.3191 0.0217958 12.4317 0.0641339C12.5444 0.106472 12.6466 0.168517 12.7326 0.246702C12.9059 0.40509 13.0031 0.618881 13.0031 0.841663C13.0031 1.06444 12.9059 1.27824 12.7326 1.43662L7.16509 6.4755C6.99604 6.62775 6.76859 6.71524 6.53002 6.71978C6.29146 6.72432 6.06013 6.64557 5.88414 6.49989L0.273156 1.44011C0.098619 1.28278 0.000362316 1.06921 1e-06 0.846378C-0.000360316 0.623551 0.0972033 0.409721 0.271229 0.251927C0.445255 0.0941336 0.681488 0.00530297 0.927959 0.00497631C1.17443 0.00464965 1.41095 0.0928538 1.58549 0.250185L6.50452 4.69435Z" fill="white"/>
</svg>
