<svg width="19" height="17" viewBox="0 0 19 17" fill="none" xmlns="http://www.w3.org/2000/svg">
<path d="M18.2515 9.33751L18.4371 9.46391C18.4355 9.46324 18.4339 9.46255 18.4322 9.46185L18.2515 9.33751ZM2.45377 8.20153L2.50581 8.16611V8.39056V16.0272V16.5H2.45474C2.45442 16.5 2.45409 16.5 2.45377 16.5V9.07202V8.20153ZM0.501935 8.58512V9.46368L0.5 9.46501V6.63826C0.500626 6.6377 0.501271 6.63713 0.501935 6.63655V6.83405V8.58512ZM9.51935 10.6767V11.1495V11.1767V11.6495V13.5815C9.51903 13.5815 9.51871 13.5815 9.51839 13.5815C9.51806 13.5815 9.51774 13.5815 9.51742 13.5815V11.6495V11.1767V11.1495V10.6767V8.74464C9.51774 8.74464 9.51806 8.74463 9.51839 8.74463C9.51871 8.74463 9.51903 8.74464 9.51935 8.74464V10.6767Z" fill="white" stroke="white"/>
</svg>
