<svg width="18" height="20" viewBox="0 0 18 20" fill="none" xmlns="http://www.w3.org/2000/svg">
<path d="M11.9295 0H0V20H17.6471V5.72388L11.9295 0ZM16.3152 18.6667H1.33185V1.33333H11.3779L16.3152 6.27612V18.6667Z" fill="white"/>
<path d="M7.75738 5.88184C7.09649 5.88147 6.44472 6.03414 5.85445 6.32758C5.26417 6.62101 4.75184 7.04704 4.35862 7.57142C3.96541 8.09581 3.70226 8.70393 3.59034 9.34693C3.47841 9.98994 3.52082 10.6499 3.71416 11.2738C3.9075 11.8977 4.24638 12.4681 4.70357 12.9392C5.16076 13.4103 5.72352 13.769 6.34663 13.9865C6.96973 14.2039 7.63582 14.2741 8.29137 14.1912C8.94692 14.1084 9.57365 13.875 10.1212 13.5097L13.1201 16.4701L14.1175 15.4855L11.142 12.5481C11.6114 11.9282 11.8968 11.1916 11.9663 10.4207C12.0357 9.64976 11.8864 8.87499 11.5351 8.18309C11.1838 7.4912 10.6444 6.90947 9.97717 6.50304C9.30998 6.09661 8.54137 5.88152 7.75738 5.88184ZM4.94229 10.0534C4.94228 9.50376 5.10738 8.96645 5.4167 8.50942C5.72603 8.0524 6.1657 7.69619 6.6801 7.48584C7.1945 7.2755 7.76054 7.22046 8.30663 7.32769C8.85271 7.43492 9.35433 7.6996 9.74804 8.08826C10.1417 8.47693 10.4099 8.97212 10.5185 9.51121C10.6271 10.0503 10.5714 10.6091 10.3583 11.1169C10.1452 11.6247 9.78437 12.0587 9.32141 12.3641C8.85846 12.6695 8.31417 12.8325 7.75738 12.8324C7.01103 12.8316 6.29549 12.5386 5.76774 12.0176C5.23999 11.4966 4.94313 10.7902 4.94229 10.0534Z" fill="white"/>
</svg>
