<svg width="29" height="29" viewBox="0 0 29 29" fill="none" xmlns="http://www.w3.org/2000/svg">
<path d="M5.4375 13.1914H7.45139V15.2053H5.4375V13.1914ZM9.46528 13.1914H11.4792V15.2053H9.46528V13.1914ZM13.4931 13.1914H15.5069V15.2053H13.4931V13.1914ZM17.5208 13.1914H19.5347V15.2053H17.5208V13.1914ZM21.5486 13.1914H23.5625V15.2053H21.5486V13.1914ZM5.4375 17.2192H7.45139V19.2331H5.4375V17.2192ZM9.46528 17.2192H11.4792V19.2331H9.46528V17.2192ZM13.4931 17.2192H15.5069V19.2331H13.4931V17.2192ZM17.5208 17.2192H19.5347V19.2331H17.5208V17.2192ZM5.4375 21.247H7.45139V23.2609H5.4375V21.247ZM9.46528 21.247H11.4792V23.2609H9.46528V21.247ZM13.4931 21.247H15.5069V23.2609H13.4931V21.247ZM17.5208 21.247H19.5347V23.2609H17.5208V21.247ZM21.5486 17.2192H23.5625V19.2331H21.5486V17.2192Z" fill="white" stroke="white" stroke-width="0.2"/>
<path d="M24.7569 4.01389H23.5486V2H21.5347V4.01389H8.24306V2H6.22917V4.01389H5.02083C3.35515 4.01389 2 5.36904 2 7.03472V24.7569C2 26.4227 3.35515 27.7778 5.02083 27.7778H24.7569C26.4227 27.7778 27.7778 26.4227 27.7778 24.7569V7.03472C27.7778 5.36904 26.4227 4.01389 24.7569 4.01389ZM25.7639 24.7569C25.7639 25.3121 25.3121 25.7639 24.7569 25.7639H5.02083C4.46561 25.7639 4.01389 25.3121 4.01389 24.7569V11.4653H25.7639V24.7569ZM25.7639 9.45139H4.01389V7.03472C4.01389 6.4795 4.46561 6.02778 5.02083 6.02778H6.22917V8.04167H8.24306V6.02778H21.5347V8.04167H23.5486V6.02778H24.7569C25.3121 6.02778 25.7639 6.4795 25.7639 7.03472V9.45139Z" fill="white" stroke="white" stroke-width="0.2"/>
</svg>
