<svg width="18" height="18" viewBox="0 0 18 18" fill="none" xmlns="http://www.w3.org/2000/svg">
<path d="M5.25 0C4.65326 0 4.08097 0.237053 3.65901 0.65901C3.23705 1.08097 3 1.65326 3 2.25V6C2.20435 6 1.44129 6.31607 0.87868 6.87868C0.31607 7.44129 0 8.20435 0 9V15.75C0 16.3467 0.237053 16.919 0.65901 17.341C1.08097 17.7629 1.65326 18 2.25 18H11.25C10.7621 17.3515 10.4988 16.5616 10.5 15.75V8.25C10.5 7.4055 10.779 6.627 11.25 6H4.5V2.25C4.5 2.05109 4.57902 1.86032 4.71967 1.71967C4.86032 1.57902 5.05109 1.5 5.25 1.5H12.75C12.9489 1.5 13.1397 1.57902 13.2803 1.71967C13.421 1.86032 13.5 2.05109 13.5 2.25V4.575C13.743 4.5255 13.9935 4.5 14.25 4.5H15V2.25C15 1.65326 14.7629 1.08097 14.341 0.65901C13.919 0.237053 13.3467 0 12.75 0H5.25ZM3.75 10.5C3.55109 10.5 3.36032 10.421 3.21967 10.2803C3.07902 10.1397 3 9.94891 3 9.75C3 9.55109 3.07902 9.36032 3.21967 9.21967C3.36032 9.07902 3.55109 9 3.75 9C3.94891 9 4.13968 9.07902 4.28033 9.21967C4.42098 9.36032 4.5 9.55109 4.5 9.75C4.5 9.94891 4.42098 10.1397 4.28033 10.2803C4.13968 10.421 3.94891 10.5 3.75 10.5ZM3.75 13.5C3.55109 13.5 3.36032 13.421 3.21967 13.2803C3.07902 13.1397 3 12.9489 3 12.75C3 12.5511 3.07902 12.3603 3.21967 12.2197C3.36032 12.079 3.55109 12 3.75 12C3.94891 12 4.13968 12.079 4.28033 12.2197C4.42098 12.3603 4.5 12.5511 4.5 12.75C4.5 12.9489 4.42098 13.1397 4.28033 13.2803C4.13968 13.421 3.94891 13.5 3.75 13.5ZM7.5 9.75C7.5 9.94891 7.42098 10.1397 7.28033 10.2803C7.13968 10.421 6.94891 10.5 6.75 10.5C6.55109 10.5 6.36032 10.421 6.21967 10.2803C6.07902 10.1397 6 9.94891 6 9.75C6 9.55109 6.07902 9.36032 6.21967 9.21967C6.36032 9.07902 6.55109 9 6.75 9C6.94891 9 7.13968 9.07902 7.28033 9.21967C7.42098 9.36032 7.5 9.55109 7.5 9.75ZM6.75 13.5C6.55109 13.5 6.36032 13.421 6.21967 13.2803C6.07902 13.1397 6 12.9489 6 12.75C6 12.5511 6.07902 12.3603 6.21967 12.2197C6.36032 12.079 6.55109 12 6.75 12C6.94891 12 7.13968 12.079 7.28033 12.2197C7.42098 12.3603 7.5 12.5511 7.5 12.75C7.5 12.9489 7.42098 13.1397 7.28033 13.2803C7.13968 13.421 6.94891 13.5 6.75 13.5ZM12 8.25C12 7.65326 12.2371 7.08097 12.659 6.65901C13.081 6.23705 13.6533 6 14.25 6H15.75C16.3467 6 16.919 6.23705 17.341 6.65901C17.7629 7.08097 18 7.65326 18 8.25V15.75C18 16.3467 17.7629 16.919 17.341 17.341C16.919 17.7629 16.3467 18 15.75 18H14.25C13.6533 18 13.081 17.7629 12.659 17.341C12.2371 16.919 12 16.3467 12 15.75V8.25Z" fill="white"/>
</svg>
