<svg width="17" height="17" viewBox="0 0 17 17" fill="none" xmlns="http://www.w3.org/2000/svg">
<path d="M0.324727 15.1074C-0.108242 15.5404 -0.108242 16.2423 0.324727 16.6753C0.757696 17.1082 1.45969 17.1082 1.89266 16.6753L0.324727 15.1074ZM9.28394 9.28394C9.71692 8.85096 9.71692 8.14908 9.28394 7.71609C8.85096 7.28311 8.14908 7.28311 7.71609 7.71609L9.28394 9.28394ZM7.71609 7.71609C7.28311 8.14908 7.28311 8.85096 7.71609 9.28394C8.14908 9.71692 8.85096 9.71692 9.28394 9.28394L7.71609 7.71609ZM16.6753 1.89266C17.1082 1.45969 17.1082 0.757696 16.6753 0.324727C16.2423 -0.108242 15.5404 -0.108242 15.1074 0.324727L16.6753 1.89266ZM9.28394 7.71609C8.85096 7.28311 8.14908 7.28311 7.71609 7.71609C7.28311 8.14908 7.28311 8.85096 7.71609 9.28394L9.28394 7.71609ZM15.1074 16.6753C15.5404 17.1082 16.2423 17.1082 16.6753 16.6753C17.1082 16.2423 17.1082 15.5404 16.6753 15.1074L15.1074 16.6753ZM7.71609 9.28394C8.14908 9.71692 8.85096 9.71692 9.28394 9.28394C9.71692 8.85096 9.71692 8.14908 9.28394 7.71609L7.71609 9.28394ZM1.89266 0.324727C1.45969 -0.108242 0.757696 -0.108242 0.324727 0.324727C-0.108242 0.757696 -0.108242 1.45969 0.324727 1.89266L1.89266 0.324727ZM1.89266 16.6753L9.28394 9.28394L7.71609 7.71609L0.324727 15.1074L1.89266 16.6753ZM9.28394 9.28394L16.6753 1.89266L15.1074 0.324727L7.71609 7.71609L9.28394 9.28394ZM7.71609 9.28394L15.1074 16.6753L16.6753 15.1074L9.28394 7.71609L7.71609 9.28394ZM9.28394 7.71609L1.89266 0.324727L0.324727 1.89266L7.71609 9.28394L9.28394 7.71609Z" fill="white"/>
</svg>
