<svg width="21" height="20" viewBox="0 0 21 20" fill="none" xmlns="http://www.w3.org/2000/svg">
<path d="M17.3 14.9C17.88 13.89 18.25 12.67 17.81 11.25C17.28 9.53 15.77 8.2 13.97 8.03C13.3025 7.95875 12.6275 8.03781 11.9946 8.26138C11.3616 8.48495 10.7867 8.84735 10.312 9.32203C9.83735 9.7967 9.47495 10.3716 9.25138 11.0046C9.02781 11.6375 8.94875 12.3125 9.02 12.98C9.2 14.77 10.52 16.29 12.24 16.82C13.67 17.26 14.88 16.89 15.89 16.31L18.39 18.81C18.78 19.2 19.4 19.2 19.79 18.81C19.8826 18.7185 19.9562 18.6095 20.0064 18.4893C20.0566 18.3692 20.0824 18.2402 20.0824 18.11C20.0824 17.9798 20.0566 17.8508 20.0064 17.7307C19.9562 17.6105 19.8826 17.5015 19.79 17.41L17.3 14.9ZM13.5 15C12.1 15 11 13.9 11 12.5C11 11.1 12.1 10 13.5 10C14.9 10 16 11.1 16 12.5C16 13.9 14.9 15 13.5 15ZM10 18V20C4.48 20 0 15.52 0 10C0 4.48 4.48 0 10 0C14.84 0 18.87 3.44 19.8 8H17.73C17.4181 6.79184 16.8279 5.67338 16.0066 4.73401C15.1853 3.79465 14.1557 3.06042 13 2.59V3C13 4.1 12.1 5 11 5H9V7C9 7.55 8.55 8 8 8H6V10H8V13H7L2.21 8.21C2.08 8.79 2 9.38 2 10C2 14.41 5.59 18 10 18Z" fill="white"/>
</svg>
