<svg width="53" height="53" viewBox="0 0 53 53" fill="none" xmlns="http://www.w3.org/2000/svg">
<g filter="url(#filter0_d_623_202)">
<rect x="4" y="4" width="45" height="45" rx="22.5" fill="#002A7B"/>
</g>
<path d="M32.2017 17.68C32.8141 17.6795 33.4204 17.8011 33.9851 18.0376C34.5497 18.2742 35.0615 18.621 35.4902 19.0576C36.3737 19.9534 36.8689 21.1603 36.8689 22.4176C36.8689 23.675 36.3737 24.8818 35.4902 25.7776L26.777 34.5892L18.0637 25.7776C17.1802 24.8818 16.685 23.675 16.685 22.4176C16.685 21.1603 17.1802 19.9534 18.0637 19.0576C18.4927 18.6213 19.0045 18.2747 19.5691 18.0381C20.1337 17.8015 20.7399 17.6796 21.3522 17.6796C21.9645 17.6796 22.5707 17.8015 23.1353 18.0381C23.6999 18.2747 24.2117 18.6213 24.6407 19.0576L26.777 21.2416L28.9048 19.0744C29.3323 18.6325 29.8446 18.2813 30.411 18.0417C30.9775 17.8022 31.5865 17.6791 32.2017 17.68ZM32.2017 16C31.3654 15.9993 30.5374 16.1654 29.7661 16.4885C28.9949 16.8116 28.2961 17.2852 27.7105 17.8816L26.777 18.8224L25.8434 17.8816C25.2571 17.2863 24.5581 16.8135 23.787 16.4907C23.0159 16.168 22.1882 16.0018 21.3522 16.0018C20.5161 16.0018 19.6884 16.168 18.9174 16.4907C18.1463 16.8135 17.4472 17.2863 16.861 17.8816C15.6683 19.0942 15 20.7261 15 22.426C15 24.1259 15.6683 25.7578 16.861 26.9704L26.777 37L36.6929 26.9704C37.8856 25.7578 38.5539 24.1259 38.5539 22.426C38.5539 20.7261 37.8856 19.0942 36.6929 17.8816C36.1068 17.286 35.4078 16.8128 34.6368 16.4898C33.8657 16.1667 33.0379 16.0002 32.2017 16Z" fill="white"/>
<defs>
<filter id="filter0_d_623_202" x="0" y="0" width="53" height="53" filterUnits="userSpaceOnUse" color-interpolation-filters="sRGB">
<feFlood flood-opacity="0" result="BackgroundImageFix"/>
<feColorMatrix in="SourceAlpha" type="matrix" values="0 0 0 0 0 0 0 0 0 0 0 0 0 0 0 0 0 0 127 0" result="hardAlpha"/>
<feOffset/>
<feGaussianBlur stdDeviation="2"/>
<feComposite in2="hardAlpha" operator="out"/>
<feColorMatrix type="matrix" values="0 0 0 0 0 0 0 0 0 0 0 0 0 0 0 0 0 0 0.25 0"/>
<feBlend mode="normal" in2="BackgroundImageFix" result="effect1_dropShadow_623_202"/>
<feBlend mode="normal" in="SourceGraphic" in2="effect1_dropShadow_623_202" result="shape"/>
</filter>
</defs>
</svg>
