<svg width="19" height="19" viewBox="0 0 19 19" fill="none" xmlns="http://www.w3.org/2000/svg">
<path d="M1.03143 5.2345C1.83797 3.66058 3.07526 2.33749 4.60501 1.4131C6.13476 0.488705 7.89669 -0.00055439 9.69388 4.7142e-07C12.3064 4.7142e-07 14.5011 0.94145 16.1791 2.47475L13.3998 5.19935C12.3946 4.2579 11.1169 3.77815 9.69388 3.77815C7.16862 3.77815 5.03112 5.45015 4.27015 7.695C4.07628 8.265 3.96577 8.873 3.96577 9.5C3.96577 10.127 4.07628 10.735 4.27015 11.305C5.03209 13.5508 7.16862 15.2218 9.69388 15.2218C10.9977 15.2218 12.1077 14.8846 12.9762 14.3146C13.4798 13.9897 13.9108 13.5681 14.2434 13.0753C14.576 12.5825 14.8031 12.0288 14.9111 11.4475H9.69388V7.7729H18.8236C18.938 8.3942 19 9.0421 19 9.71565C19 12.6094 17.9434 15.0451 16.1093 16.6981C14.5059 18.1497 12.3112 19 9.69388 19C8.42072 19.0005 7.15993 18.7551 5.98359 18.2779C4.80724 17.8006 3.7384 17.1009 2.83814 16.2186C1.93787 15.3364 1.22385 14.2889 0.736865 13.1361C0.249883 11.9833 -0.000508794 10.7477 7.76203e-07 9.5C7.76203e-07 7.9667 0.374184 6.517 1.03143 5.2345Z" fill="#002A7B"/>
</svg>
