<svg width="26" height="26" viewBox="0 0 26 26" fill="none" xmlns="http://www.w3.org/2000/svg">
<path d="M22.5157 0H8.68593C7.24764 0 6.08594 1.1617 6.08594 2.6V3.04255C6.08594 3.31914 6.25189 3.4851 6.52849 3.4851H19.0859C20.5242 3.4851 21.6859 4.6468 21.6859 6.0851V19.5276C21.6859 19.8042 21.8519 19.9702 22.1285 19.9702H22.5157C23.954 19.9702 25.1157 18.8085 25.1157 17.3702V2.6C25.1157 1.1617 23.954 0 22.5157 0Z" fill="#002A7B"/>
<path d="M16.4298 6.08496H2.6C1.1617 6.08496 0 7.24666 0 8.68496V23.3998C0 24.8381 1.1617 25.9998 2.6 25.9998H16.4298C17.8681 25.9998 19.0298 24.8381 19.0298 23.3998V8.68496C19.0851 7.24666 17.8681 6.08496 16.4298 6.08496ZM15.3234 13.4424L8.68509 20.0807C8.4085 20.3573 8.1319 20.4679 7.79999 20.4679C7.52339 20.4679 7.13616 20.3573 6.91488 20.0807L3.70638 16.8722C3.42978 16.5956 3.42978 16.2084 3.70638 15.9871L4.59148 15.102C4.86808 14.8254 5.25531 14.8254 5.47659 15.102L7.79999 17.4254L13.4979 11.7275C13.7745 11.4509 14.1617 11.4509 14.383 11.7275L15.2681 12.6126C15.5447 12.7786 15.5447 13.2211 15.3234 13.4424Z" fill="#002A7B"/>
</svg>
