<svg width="16" height="16" viewBox="0 0 16 16" fill="none" xmlns="http://www.w3.org/2000/svg">
<path d="M15.5335 12.6323C15.5335 8.75181 12.5838 5.54799 8.80911 5.14302C9.18379 4.88489 9.43022 4.45332 9.43022 3.96499C9.43022 3.17651 8.78862 2.53491 8.00015 2.53491C7.21167 2.53491 6.57007 3.17651 6.57007 3.96499C6.57007 4.45332 6.8165 4.88489 7.19119 5.14302C3.41646 5.54799 0.466797 8.75181 0.466797 12.6323V12.8927H15.5335V12.6323ZM12.9822 10.9337C12.5214 9.2437 11.1109 7.94917 9.38862 7.63589L9.49605 7.04565C11.4441 7.39995 13.0398 8.86421 13.5611 10.7759L12.9822 10.9337Z" fill="#002A7B"/>
<path d="M8.40156 0H7.60156V1.58359H8.40156V0Z" fill="#002A7B"/>
<path d="M5.50937 0.564645L4.81055 0.954102L5.56563 2.30898L6.26445 1.91953L5.50937 0.564645Z" fill="#002A7B"/>
<path d="M3.3652 2.41044L3.05469 3.14795L4.7377 3.85654L5.04821 3.11903L3.3652 2.41044Z" fill="#002A7B"/>
<path d="M10.492 0.565111L9.70312 1.98071L10.402 2.37017L11.1909 0.954564L10.492 0.565111Z" fill="#002A7B"/>
<path d="M12.6348 2.41016L11.0273 3.08691L11.3379 3.82443L12.9453 3.14767L12.6348 2.41016Z" fill="#002A7B"/>
<path d="M16 13.4922H0V16.0001H16V13.4922Z" fill="#002A7B"/>
</svg>
