<svg width="16" height="16" viewBox="0 0 16 16" fill="none" xmlns="http://www.w3.org/2000/svg">
<path d="M15.9948 7.81711C16.0098 7.88961 15.9923 7.96711 15.9448 8.02461C15.8973 8.08211 15.8248 8.11711 15.7498 8.11711H13.4599C13.3724 8.11711 13.2923 8.07211 13.2474 7.99711L11.3524 4.9122L9.44996 7.99711C9.40496 8.07211 9.32496 8.11711 9.23747 8.11711H0.250217C0.175219 8.11711 0.102696 8.08211 0.0552219 8.02461C0.00772324 7.96711 -0.00977628 7.88961 0.0052233 7.81461L1.10767 2.58226C1.13269 2.46726 1.23516 2.38477 1.35266 2.38477H2.53765V5.23719H5.69256V2.38477H14.6523C14.7698 2.38477 14.8723 2.46726 14.8973 2.58226L15.9948 7.81711Z" fill="#002A7B"/>
<path d="M5.194 1.82227H3.03906V4.73718H5.194V1.82227Z" fill="#002A7B"/>
<path d="M5.70116 0.164995V1.15747C5.70116 1.24994 5.62616 1.32246 5.53614 1.32246H2.6963C2.60627 1.32246 2.53125 1.24994 2.53125 1.15747V0.164995C2.53125 0.0750229 2.60627 0 2.6963 0H5.53614C5.62616 0 5.70116 0.0750229 5.70116 0.164995Z" fill="#002A7B"/>
<path d="M15.7493 14.8618H15.3848V8.61662H13.4599C13.1974 8.61662 12.9524 8.47663 12.8174 8.25413L11.3524 5.8667L9.87497 8.25913C9.74498 8.47663 9.49999 8.61662 9.23749 8.61662H0.615233V14.8618H0.249993C0.111822 14.8618 0 14.9738 0 15.1118C0 15.2499 0.111822 15.3618 0.249993 15.3618H15.7493C15.8875 15.3618 15.9993 15.2499 15.9993 15.1118C15.9993 14.9738 15.8875 14.8618 15.7493 14.8618ZM5.55772 9.3741H8.00003V11.239H5.55772V9.3741ZM5.55772 13.6039V11.739H8.00003V13.604L5.55772 13.6039ZM2.61518 9.3741H5.05773V11.239H2.61518V9.3741ZM2.61518 11.739H5.05773V13.6039L2.61518 13.604V11.739ZM10.38 11.469C10.38 10.5841 11.0974 9.86659 11.9824 9.86659C12.866 9.86659 13.5824 10.5841 13.5824 11.469V14.8618H10.38V11.469Z" fill="#002A7B"/>
</svg>
