<svg width="17" height="17" viewBox="0 0 17 17" fill="none" xmlns="http://www.w3.org/2000/svg">
<path d="M6.13908 4.74092C6.41561 4.74092 6.68593 4.82292 6.91586 4.97655C7.14579 5.13018 7.32499 5.34855 7.43082 5.60403C7.53664 5.85951 7.56433 6.14063 7.51038 6.41185C7.45643 6.68307 7.32327 6.9322 7.12773 7.12773C6.9322 7.32327 6.68307 7.45643 6.41185 7.51038C6.14063 7.56433 5.85951 7.53664 5.60403 7.43082C5.34855 7.32499 5.13018 7.14579 4.97655 6.91586C4.82292 6.68593 4.74092 6.41561 4.74092 6.13908C4.74138 5.76841 4.88883 5.41304 5.15094 5.15094C5.41304 4.88883 5.76841 4.74138 6.13908 4.74092ZM7.47653 8.61449C6.88163 8.93606 6.19087 9.03275 5.53054 8.8869C4.87021 8.74105 4.28444 8.3624 3.88033 7.82018C3.47622 7.27796 3.28078 6.6084 3.32974 5.93393C3.3787 5.25945 3.66878 4.62514 4.14696 4.14696C4.62514 3.66878 5.25945 3.3787 5.93393 3.32974C6.6084 3.28078 7.27796 3.47622 7.82018 3.88033C8.3624 4.28444 8.74105 4.87021 8.8869 5.53054C9.03275 6.19087 8.93606 6.88163 8.61449 7.47653C8.87309 7.34335 9.16283 7.28239 9.45317 7.3001C9.7435 7.31781 10.0237 7.41352 10.2642 7.57714C10.3345 7.20677 10.5319 6.87256 10.8223 6.63219C11.1127 6.39182 11.4779 6.26036 11.8549 6.26051H12.2782V5.7401C12.2774 5.57428 12.2185 5.41398 12.1117 5.28717C12.0048 5.16035 11.8569 5.07508 11.6936 5.04622L10.7742 4.8849C10.6663 4.4842 10.5065 4.09932 10.2989 3.74L10.8349 2.975C10.9268 2.83979 10.9691 2.67692 10.9546 2.51406C10.94 2.3512 10.8695 2.19841 10.7551 2.08163L10.2035 1.52133C10.0857 1.40409 9.93046 1.33202 9.7649 1.31774C9.59934 1.30347 9.43404 1.34791 9.29796 1.44327L8.53296 1.97929C8.17367 1.77164 7.78877 1.61185 7.38806 1.50398L7.22673 0.584592C7.19788 0.4213 7.11261 0.273324 6.98579 0.166484C6.85898 0.0596433 6.69868 0.000721605 6.53286 0H5.75224C5.58642 0.000721605 5.42612 0.0596433 5.29931 0.166484C5.1725 0.273324 5.08722 0.4213 5.05837 0.584592L4.89704 1.50398C4.49632 1.61183 4.11142 1.77162 3.75214 1.97929L2.9802 1.44327C2.84472 1.34974 2.68088 1.30637 2.51687 1.32062C2.35287 1.33487 2.19895 1.40584 2.08163 1.52133L1.52133 2.08163C1.40364 2.1995 1.3313 2.35509 1.31702 2.52103C1.30274 2.68698 1.34744 2.85264 1.44327 2.98888L1.97929 3.75388C1.77176 4.11323 1.61198 4.49811 1.50398 4.89878L0.584592 5.0601C0.4213 5.08896 0.273324 5.17423 0.166484 5.30104C0.0596433 5.42786 0.000721605 5.58816 0 5.75398V6.53459C0.000721605 6.70041 0.0596433 6.86071 0.166484 6.98753C0.273324 7.11434 0.4213 7.19961 0.584592 7.22847L1.50398 7.3898C1.61189 7.7905 1.77167 8.17538 1.97929 8.53469L1.44327 9.29622C1.34744 9.43246 1.30274 9.59812 1.31702 9.76407C1.3313 9.93001 1.40364 10.0856 1.52133 10.2035L2.08163 10.7551C2.19928 10.873 2.35476 10.9457 2.52071 10.9603C2.68667 10.9749 2.85245 10.9305 2.98888 10.8349L3.75388 10.2989C4.11321 10.5064 4.49809 10.6662 4.89878 10.7742L5.0601 11.6936C5.08896 11.8569 5.17423 12.0048 5.30104 12.1117C5.42786 12.2185 5.58816 12.2774 5.75398 12.2782H6.27439V11.8549C6.27424 11.4779 6.40569 11.1127 6.64607 10.8223C6.88644 10.5319 7.22065 10.3345 7.59102 10.2642C7.42521 10.025 7.32705 9.74544 7.3069 9.45508C7.28675 9.16472 7.34535 8.87431 7.47653 8.61449ZM17 11.8549V12.469C16.9983 12.5988 16.9512 12.724 16.867 12.8229C16.7827 12.9217 16.6665 12.988 16.5386 13.0102L15.8135 13.1368C15.7294 13.4567 15.6034 13.7641 15.4388 14.051L15.862 14.6547C15.9375 14.7621 15.9727 14.8927 15.9613 15.0234C15.9498 15.1542 15.8926 15.2767 15.7996 15.3694L15.3642 15.8048C15.2715 15.8978 15.149 15.955 15.0182 15.9665C14.8875 15.9779 14.7569 15.9427 14.6495 15.8672L14.051 15.4388C13.7679 15.6024 13.4647 15.7284 13.149 15.8135L13.0102 16.5386C12.988 16.6665 12.9217 16.7827 12.8229 16.867C12.724 16.9512 12.5988 16.9983 12.469 17H11.8549C11.7235 17.0003 11.5963 16.9542 11.4957 16.8697C11.395 16.7853 11.3275 16.668 11.305 16.5386L11.1784 15.8135C10.8627 15.7284 10.5594 15.6024 10.2763 15.4388L9.67265 15.862C9.56527 15.9375 9.43468 15.9727 9.30391 15.9613C9.17314 15.9498 9.05062 15.8926 8.95796 15.7996L8.52255 15.3642C8.42957 15.2715 8.37232 15.149 8.36089 15.0182C8.34947 14.8875 8.3846 14.7569 8.4601 14.6495L8.8851 14.051C8.72147 13.7679 8.59551 13.4647 8.51041 13.149L7.78531 13.0102C7.65589 12.9877 7.53859 12.9202 7.45415 12.8195C7.36972 12.7189 7.32357 12.5917 7.32388 12.4603V11.8549C7.32357 11.7235 7.36972 11.5963 7.45415 11.4957C7.53859 11.395 7.65589 11.3275 7.78531 11.305L8.51041 11.1784C8.59556 10.8627 8.72152 10.5594 8.8851 10.2763L8.46184 9.67439C8.38634 9.56701 8.3512 9.43641 8.36263 9.30564C8.37405 9.17488 8.43131 9.05235 8.52429 8.95969L8.95969 8.52429C9.05235 8.43131 9.17488 8.37405 9.30564 8.36263C9.43641 8.3512 9.56701 8.38634 9.67439 8.46184L10.2763 8.8851C10.5594 8.72145 10.8627 8.59549 11.1784 8.51041L11.305 7.78531C11.3275 7.65589 11.395 7.53859 11.4957 7.45415C11.5963 7.36972 11.7235 7.32357 11.8549 7.32388H12.469C12.5988 7.3256 12.724 7.37266 12.8229 7.45693C12.9217 7.54119 12.988 7.65735 13.0102 7.78531L13.1368 8.51041C13.4567 8.59448 13.7641 8.72047 14.051 8.8851L14.653 8.46184C14.7603 8.38634 14.8909 8.3512 15.0217 8.36263C15.1525 8.37405 15.275 8.43131 15.3677 8.52429L15.8031 8.95969C15.896 9.05235 15.9533 9.17488 15.9647 9.30564C15.9761 9.43641 15.941 9.56701 15.8655 9.67439L15.4388 10.2763C15.6024 10.5594 15.7284 10.8627 15.8135 11.1784L16.5386 11.305C16.668 11.3275 16.7853 11.395 16.8697 11.4957C16.9542 11.5963 17.0003 11.7235 17 11.8549ZM13.822 12.1619C13.822 11.8336 13.7247 11.5126 13.5423 11.2396C13.3598 10.9666 13.1006 10.7539 12.7972 10.6282C12.4939 10.5026 12.1601 10.4697 11.8381 10.5337C11.516 10.5978 11.2202 10.7559 10.9881 10.9881C10.7559 11.2202 10.5978 11.516 10.5337 11.8381C10.4697 12.1601 10.5026 12.4939 10.6282 12.7972C10.7539 13.1006 10.9666 13.3598 11.2396 13.5423C11.5126 13.7247 11.8336 13.822 12.1619 13.822C12.6022 13.822 13.0245 13.6471 13.3358 13.3358C13.6471 13.0245 13.822 12.6022 13.822 12.1619Z" fill="#002A7B"/>
</svg>
