<svg width="16" height="13" viewBox="0 0 16 13" fill="none" xmlns="http://www.w3.org/2000/svg">
<path d="M2 0C0.895431 0 0 0.895431 0 2V11C0 12.1046 0.895431 13 2 13H14C15.1046 13 16 12.1046 16 11V2C16 0.89543 15.1046 0 14 0H2ZM2.87595 3.05097C2.87607 2.65338 3.19838 2.3311 3.59597 2.33102L4.79448 2.3308C5.07202 2.33074 5.19582 2.67932 4.98041 2.85434C4.83524 2.97229 4.83522 3.19389 4.98038 3.31186L6.53021 4.57144C6.81124 4.79983 6.81121 5.22885 6.53015 5.45721C6.32046 5.62758 6.02003 5.62756 5.81037 5.45716L4.04992 4.02641C3.90076 3.90519 3.68704 3.90514 3.53783 4.02629C3.27237 4.24182 2.87567 4.05285 2.87576 3.71091L2.87595 3.05097ZM3.58871 10.6631C3.19094 10.6631 2.86848 10.3407 2.86848 9.94289V9.28901C2.86848 8.94462 3.2681 8.75441 3.53539 8.97158C3.68565 9.09367 3.90092 9.09368 4.05119 8.97161L11.0185 3.31161C11.1636 3.19376 11.1636 2.97234 11.0186 2.85443C10.8035 2.67949 10.9272 2.33126 11.2045 2.33132L12.4037 2.33154C12.8014 2.33162 13.1238 2.65409 13.1238 3.05186V3.71089C13.1238 4.05311 12.7268 4.24218 12.4611 4.02646C12.3118 3.90521 12.0979 3.90524 11.9486 4.02654L4.97837 9.68933C4.83426 9.80641 4.83425 10.0264 4.97836 10.1435C5.19214 10.3172 5.06932 10.6631 4.79387 10.6631H3.58871ZM13.1304 9.943C13.1303 10.3407 12.8079 10.6631 12.4101 10.6631H11.2057C10.9303 10.6631 10.8074 10.3173 11.0211 10.1435C11.1652 10.0264 11.1651 9.80646 11.021 9.68942L9.46566 8.42641C9.18449 8.19808 9.18443 7.76897 9.46554 7.54057C9.67515 7.37026 9.97544 7.37022 10.1851 7.54047L11.9475 8.97163C12.0978 9.0937 12.3131 9.09371 12.4634 8.97165C12.7309 8.75445 13.1307 8.94489 13.1306 9.28948L13.1304 9.943Z" fill="#002A7B"/>
</svg>
