<svg width="18" height="12" viewBox="0 0 18 12" fill="none" xmlns="http://www.w3.org/2000/svg">
<path d="M5.45157 1.38513L17.0256 1.38568L5.45157 1.38513ZM5.45157 6.00054L17.0256 6.00115L5.45157 6.00054ZM5.45157 10.6159L17.0256 10.6165L5.45157 10.6159ZM1.44516 1.38462H1.45406H1.44516ZM1.44516 6H1.45406H1.44516ZM1.44516 10.6154H1.45406H1.44516ZM1.89031 1.38462C1.89031 1.59703 1.69101 1.76923 1.44516 1.76923C1.19931 1.76923 1 1.59703 1 1.38462C1 1.1722 1.19931 1 1.44516 1C1.69101 1 1.89031 1.1722 1.89031 1.38462ZM1.89031 6C1.89031 6.21238 1.69101 6.38462 1.44516 6.38462C1.19931 6.38462 1 6.21238 1 6C1 5.78762 1.19931 5.61538 1.44516 5.61538C1.69101 5.61538 1.89031 5.78762 1.89031 6ZM1.89031 10.6154C1.89031 10.8278 1.69101 11 1.44516 11C1.19931 11 1 10.8278 1 10.6154C1 10.403 1.19931 10.2308 1.44516 10.2308C1.69101 10.2308 1.89031 10.403 1.89031 10.6154Z" fill="white"/>
<path d="M5.45157 1.38513L17.0256 1.38568M5.45157 6.00054L17.0256 6.00115M5.45157 10.6159L17.0256 10.6165M1.44516 1.38462H1.45406M1.44516 6H1.45406M1.44516 10.6154H1.45406M1.89031 1.38462C1.89031 1.59703 1.69101 1.76923 1.44516 1.76923C1.19931 1.76923 1 1.59703 1 1.38462C1 1.1722 1.19931 1 1.44516 1C1.69101 1 1.89031 1.1722 1.89031 1.38462ZM1.89031 6C1.89031 6.21238 1.69101 6.38462 1.44516 6.38462C1.19931 6.38462 1 6.21238 1 6C1 5.78762 1.19931 5.61538 1.44516 5.61538C1.69101 5.61538 1.89031 5.78762 1.89031 6ZM1.89031 10.6154C1.89031 10.8278 1.69101 11 1.44516 11C1.19931 11 1 10.8278 1 10.6154C1 10.403 1.19931 10.2308 1.44516 10.2308C1.69101 10.2308 1.89031 10.403 1.89031 10.6154Z" stroke="white" stroke-width="1.5" stroke-linecap="round" stroke-linejoin="round"/>
</svg>
