<svg width="25" height="18" viewBox="0 0 25 18" fill="none" xmlns="http://www.w3.org/2000/svg">
<path d="M23.6654 3.69573H7.96969C7.6337 3.69573 7.3457 3.40774 7.3457 3.07174C7.3457 2.73575 7.6337 2.44775 7.96969 2.44775H23.6654C24.0014 2.44775 24.2894 2.73575 24.2894 3.07174C24.2894 3.40774 24.0014 3.69573 23.6654 3.69573Z" fill="#201F1F"/>
<path d="M3.07195 3.69622H0.62399C0.287995 3.69622 0 3.40823 0 3.07223C0 2.73624 0.287995 2.44824 0.62399 2.44824H3.07195C3.40794 2.44824 3.69594 2.73624 3.69594 3.07223C3.69594 3.40823 3.45594 3.69622 3.07195 3.69622Z" fill="#201F1F"/>
<path d="M23.664 9.60003H19.5361C19.2001 9.60003 18.9121 9.31203 18.9121 8.97604C18.9121 8.64005 19.2001 8.35205 19.5361 8.35205H23.664C24 8.35205 24.288 8.64005 24.288 8.97604C24.288 9.31203 24 9.60003 23.664 9.60003Z" fill="#201F1F"/>
<path d="M14.6398 9.60003H0.62399C0.287995 9.60003 0 9.31203 0 8.97604C0 8.64005 0.287995 8.35205 0.62399 8.35205H14.6398C14.9757 8.35205 15.2637 8.64005 15.2637 8.97604C15.2637 9.31203 14.9757 9.60003 14.6398 9.60003Z" fill="#201F1F"/>
<path d="M23.6654 15.5522H7.96969C7.6337 15.5522 7.3457 15.2642 7.3457 14.9282C7.3457 14.5922 7.6337 14.3042 7.96969 14.3042H23.6654C24.0014 14.3042 24.2894 14.5922 24.2894 14.9282C24.2894 15.2642 24.0014 15.5522 23.6654 15.5522Z" fill="#201F1F"/>
<path d="M3.07195 15.5523H0.62399C0.287995 15.5523 0 15.2643 0 14.9283C0 14.5443 0.287995 14.2563 0.62399 14.2563H3.07195C3.40794 14.2563 3.69594 14.5443 3.69594 14.8803C3.74394 15.2643 3.45594 15.5523 3.07195 15.5523Z" fill="#201F1F"/>
<path d="M5.51726 6.1439C3.83729 6.1439 2.44531 4.75192 2.44531 3.07195C2.44531 1.39198 3.83729 0 5.51726 0C7.19723 0 8.58921 1.39198 8.58921 3.07195C8.58921 4.75192 7.24523 6.1439 5.51726 6.1439ZM5.51726 1.24798C4.50928 1.24798 3.69329 2.06397 3.69329 3.07195C3.69329 4.07993 4.50928 4.89592 5.51726 4.89592C6.52524 4.89592 7.34123 4.07993 7.34123 3.07195C7.34123 2.06397 6.52524 1.24798 5.51726 1.24798Z" fill="#201F1F"/>
<path d="M17.0895 12.0482C15.4096 12.0482 14.0176 10.6562 14.0176 8.97625C14.0176 7.29627 15.4096 5.9043 17.0895 5.9043C18.7695 5.9043 20.1615 7.29627 20.1615 8.97625C20.1615 10.6562 18.8175 12.0482 17.0895 12.0482ZM17.0895 7.15228C16.0815 7.15228 15.2656 7.96826 15.2656 8.97625C15.2656 9.98423 16.0815 10.8002 17.0895 10.8002C18.0975 10.8002 18.9135 9.98423 18.9135 8.97625C18.9135 7.96826 18.0975 7.15228 17.0895 7.15228Z" fill="#201F1F"/>
<path d="M5.51726 18.0003C3.83729 18.0003 2.44531 16.6084 2.44531 14.9284C2.44531 13.2004 3.83729 11.8564 5.51726 11.8564C7.19723 11.8564 8.58921 13.2484 8.58921 14.9284C8.63721 16.6084 7.24523 18.0003 5.51726 18.0003ZM5.51726 13.1044C4.50928 13.1044 3.69329 13.9204 3.69329 14.9284C3.69329 15.9364 4.50928 16.7524 5.51726 16.7524C6.52524 16.7524 7.34123 15.9364 7.34123 14.9284C7.34123 13.9204 6.52524 13.1044 5.51726 13.1044Z" fill="#201F1F"/>
</svg>
