<svg width="12" height="17" viewBox="0 0 12 17" fill="none" xmlns="http://www.w3.org/2000/svg">
<path d="M10.9269 0H0.445516C0.187585 0 0 0.187587 0 0.445518V16.5545C0 16.8124 0.187585 17 0.445516 17H4.15034V13.6235C4.15034 13.2014 4.50207 12.8497 4.92414 12.8497H6.77655C7.19862 12.8497 7.55034 13.2014 7.55034 13.6235V17H10.9269C11.1848 17 11.3724 16.8124 11.3724 16.5545V0.445518C11.3724 0.211035 11.1848 0 10.9269 0ZM3.47034 12.0759H1.89931V10.5517H3.47034V12.0759ZM3.47034 9.14483H1.89931V7.62069H3.47034V9.14483ZM3.47034 6.21379H1.89931V4.68966H3.47034V6.21379ZM3.47034 3.28276H1.89931V1.75862H3.47034V3.28276ZM6.65931 12.0759H5.08828V10.5517H6.65931V12.0759ZM6.65931 9.14483H5.08828V7.62069H6.65931V9.14483ZM6.65931 6.21379H5.08828V4.68966H6.65931V6.21379ZM6.65931 3.28276H5.08828V1.75862H6.65931V3.28276ZM9.82483 12.0759H8.25379V10.5517H9.82483V12.0759ZM9.82483 9.14483H8.25379V7.62069H9.82483V9.14483ZM9.82483 6.21379H8.25379V4.68966H9.82483V6.21379ZM9.82483 3.28276H8.25379V1.75862H9.82483V3.28276Z" fill="#002A7B"/>
</svg>
