<svg width="35" height="33" viewBox="0 0 35 33" fill="none" xmlns="http://www.w3.org/2000/svg">
<path d="M14.1708 8.81153H2.31822C1.86915 8.81153 1.43847 8.98021 1.12093 9.28045C0.803392 9.58069 0.625 9.98791 0.625 10.4125V32.8262H15.864V10.4125C15.864 9.98791 15.6856 9.58069 15.368 9.28045C15.0505 8.98021 14.6198 8.81153 14.1708 8.81153ZM7.39788 29.6243H4.01144V26.4223H7.39788V29.6243ZM7.39788 24.8213H4.01144V21.6194H7.39788V24.8213ZM7.39788 20.0184H4.01144V16.8164H7.39788V20.0184ZM7.39788 15.2154H4.01144V12.0135H7.39788V15.2154ZM12.4775 29.6243H9.0911V26.4223H12.4775V29.6243ZM12.4775 24.8213H9.0911V21.6194H12.4775V24.8213ZM12.4775 20.0184H9.0911V16.8164H12.4775V20.0184ZM12.4775 15.2154H9.0911V12.0135H12.4775V15.2154ZM33.4836 6.7879L19.2504 0.806641V32.8262H34.4894V8.25119C34.4894 7.94143 34.3944 7.63831 34.2159 7.37858C34.0374 7.11885 33.783 6.91366 33.4836 6.7879ZM31.103 26.4223H22.6369V23.2203H31.103V26.4223ZM31.103 20.0184H22.6369V16.8164H31.103V20.0184ZM31.103 13.6145H22.6369V10.4125H31.103V13.6145Z" fill="white"/>
</svg>
