<svg width="19" height="21" viewBox="0 0 19 21" fill="none" xmlns="http://www.w3.org/2000/svg">
<path d="M3.89583 9.13875C5.39583 12.3225 7.8125 14.9325 10.7604 16.5525L13.0521 14.0775C13.3437 13.7625 13.75 13.6725 14.1146 13.7963C15.2812 14.2125 16.5312 14.4375 17.8333 14.4375C18.1096 14.4375 18.3746 14.556 18.5699 14.767C18.7653 14.978 18.875 15.2641 18.875 15.5625V19.5C18.875 19.7984 18.7653 20.0845 18.5699 20.2955C18.3746 20.5065 18.1096 20.625 17.8333 20.625C13.1368 20.625 8.63261 18.6101 5.31165 15.0234C1.99069 11.4368 0.125 6.57227 0.125 1.5C0.125 1.20163 0.234747 0.915483 0.430097 0.704505C0.625447 0.493526 0.890399 0.375 1.16667 0.375H4.8125C5.08877 0.375 5.35372 0.493526 5.54907 0.704505C5.74442 0.915483 5.85417 1.20163 5.85417 1.5C5.85417 2.90625 6.0625 4.25625 6.44792 5.51625C6.5625 5.91 6.47917 6.34875 6.1875 6.66375L3.89583 9.13875Z" fill="white"/>
</svg>
