<svg width="22" height="20" viewBox="0 0 22 20" fill="none" xmlns="http://www.w3.org/2000/svg">
<path d="M17.6454 0C17.8676 0 18.074 0.106255 18.2021 0.281664L18.2521 0.360964L21.9253 7.19073L21.9646 7.28382L21.9752 7.31818L21.9908 7.38845L21.9994 7.46845L21.9974 7.55882L22 7.5C22 7.59555 21.9802 7.68655 21.9444 7.76918L21.918 7.82336L21.8807 7.88391L21.8324 7.94618L11.5488 19.7315C11.457 19.8537 11.3313 19.9343 11.1948 19.973L11.1416 19.9858L11.0524 19.9981L10.9986 20L10.9064 19.9938L10.8284 19.9792L10.7337 19.9484L10.7101 19.9373C10.6273 19.901 10.5512 19.8469 10.4876 19.7759L0.154127 7.933L0.0971863 7.85336L0.0532641 7.76873L0.0214705 7.67845L0.000256606 7.55927L0 7.44346L0.0136231 7.35373L0.0224148 7.31809L0.0534931 7.23073L0.0785577 7.17918L3.74562 0.360964C3.85018 0.166554 4.04184 0.036 4.25823 0.00640002L4.3523 0H17.6454ZM14.5797 8.18182H7.41518L10.9997 17.4182L14.5797 8.18182ZM5.94289 8.18182H2.18782L8.94709 15.9255L5.94289 8.18182ZM19.8071 8.18182H16.0548L13.0542 15.9191L19.8071 8.18182ZM7.35375 1.36273H4.76393L1.82936 6.81818H5.88605L7.35375 1.36273ZM13.2201 1.36273H8.77657L7.30887 6.81818H14.687L13.2201 1.36273ZM17.2328 1.36273H14.643L16.1107 6.81818H20.1656L17.2328 1.36273Z" fill="white"/>
</svg>
