<svg width="53" height="53" viewBox="0 0 53 53" fill="none" xmlns="http://www.w3.org/2000/svg">
<g filter="url(#filter0_d_623_205)">
<rect x="4" y="4" width="45" height="45" rx="22.5" fill="#002A7B"/>
</g>
<path d="M36.3636 24.8182H32.5455V20.0564L27.3975 15H19.4545V24.8182H15.6364C15.2024 24.8182 14.7862 24.9906 14.4793 25.2975C14.1724 25.6043 14 26.0206 14 26.4545V35.1818C14 35.6158 14.1724 36.032 14.4793 36.3389C14.7862 36.6458 15.2024 36.8182 15.6364 36.8182H19.4545V39H32.5455V36.8182H36.3636C36.7976 36.8182 37.2138 36.6458 37.5207 36.3389C37.8276 36.032 38 35.6158 38 35.1818V26.4545C38 26.0206 37.8276 25.6043 37.5207 25.2975C37.2138 24.9906 36.7976 24.8182 36.3636 24.8182ZM31.4545 20.4545H27.0909V16.0909L31.4545 20.4545ZM20.5455 16.0909H26V21.5455H31.4545V24.8182H20.5455V16.0909ZM31.4545 37.9091H20.5455V32.4545H31.4545V37.9091ZM36.9091 35.1818C36.9091 35.3265 36.8516 35.4652 36.7493 35.5675C36.647 35.6698 36.5083 35.7273 36.3636 35.7273H32.5455V33.5455H33.6364V31.3636H18.3636V33.5455H19.4545V35.7273H15.6364C15.4917 35.7273 15.353 35.6698 15.2507 35.5675C15.1484 35.4652 15.0909 35.3265 15.0909 35.1818V26.4545C15.0909 26.3099 15.1484 26.1711 15.2507 26.0689C15.353 25.9666 15.4917 25.9091 15.6364 25.9091H36.3636C36.5083 25.9091 36.647 25.9666 36.7493 26.0689C36.8516 26.1711 36.9091 26.3099 36.9091 26.4545V35.1818ZM29.2727 35.7273V36.8182H22.7273V35.7273H29.2727ZM22.7273 34.6364V33.5455H29.2727V34.6364H22.7273ZM33.6364 27H34.7273V28.0909H33.6364V27Z" fill="white"/>
<defs>
<filter id="filter0_d_623_205" x="0" y="0" width="53" height="53" filterUnits="userSpaceOnUse" color-interpolation-filters="sRGB">
<feFlood flood-opacity="0" result="BackgroundImageFix"/>
<feColorMatrix in="SourceAlpha" type="matrix" values="0 0 0 0 0 0 0 0 0 0 0 0 0 0 0 0 0 0 127 0" result="hardAlpha"/>
<feOffset/>
<feGaussianBlur stdDeviation="2"/>
<feComposite in2="hardAlpha" operator="out"/>
<feColorMatrix type="matrix" values="0 0 0 0 0 0 0 0 0 0 0 0 0 0 0 0 0 0 0.25 0"/>
<feBlend mode="normal" in2="BackgroundImageFix" result="effect1_dropShadow_623_205"/>
<feBlend mode="normal" in="SourceGraphic" in2="effect1_dropShadow_623_205" result="shape"/>
</filter>
</defs>
</svg>
