<svg width="87" height="22" viewBox="0 0 87 22" fill="none" xmlns="http://www.w3.org/2000/svg">
<path id="Vector" d="M18.3291 21.9999H11.516L5.74292 12.5715V21.9999H0V0.000765807H8.48619C13.792 0.000765807 15.9023 3.02376 15.9023 6.79506C15.9023 9.89292 14.0633 11.7037 11.4104 12.2724L18.3291 21.9999ZM10.431 6.85467C10.431 5.5078 9.66227 4.65476 7.53693 4.65476H5.74322V9.06953H7.53693C9.66226 9.06953 10.431 8.20154 10.431 6.85467ZM33.4963 4.95443H25.7788V8.54612H32.6522V13.4548H25.7788V17.0016H33.4963V22H20.0362V0.000842533H33.4963V4.95443ZM37.0562 21.9999V0.000765807H42.7992V21.9999H37.0562ZM46.9775 21.9999V0.000765807H55.554C62.8042 0.000765807 66.3315 4.31079 66.3315 11C66.3315 17.6745 62.8043 21.9992 55.554 21.9992L46.9775 21.9999ZM52.7208 17.0015H55.2531C58.735 17.0015 60.2876 15.0111 60.2876 11.0004C60.2876 6.97474 58.735 4.95443 55.2531 4.95443H52.7208V17.0015ZM86.9999 0.000765807L79.7045 11.4789V21.9992H73.9616V11.5685L66.6209 0H72.9215L76.8105 6.495L80.7295 0L86.9999 0.000765807Z" fill="#33583B"/>
</svg>
