<svg width="20" height="15" viewBox="0 0 20 15" fill="none" xmlns="http://www.w3.org/2000/svg">
<path fill-rule="evenodd" clip-rule="evenodd" d="M18.2359 6.11644V15.0001H16.627C16.627 13.731 16.6866 12.3914 16.6866 11.0518C17.6996 11.3338 18.1167 9.85321 17.1633 9.00715C15.7332 7.80856 14.303 6.53947 12.8729 5.27038C12.6941 5.12936 12.5154 5.12936 12.3962 5.19987L8.70166 8.51361L7.15234 7.17401L13.2304 1.74512L18.2359 6.11644Z" fill="#002A7B"/>
<path fill-rule="evenodd" clip-rule="evenodd" d="M8.46422 10.6285V14.9998H6.25943V12.4616C6.25943 11.8976 5.90189 11.404 5.36559 11.404H4.17381C3.6971 11.404 3.27997 11.8976 3.27997 12.4616V14.9998H1.13477V10.6285L4.7697 7.38525L8.46422 10.6285Z" fill="#002A7B"/>
<path fill-rule="evenodd" clip-rule="evenodd" d="M4.17203 11.8975H5.36381C5.66175 11.8975 5.90011 12.109 5.90011 12.4615V14.9997H3.69531V12.4615C3.69531 12.109 3.93367 11.8975 4.17203 11.8975Z" fill="#002A7B"/>
<path fill-rule="evenodd" clip-rule="evenodd" d="M16.2123 10.6285V14.9998H14.0671V12.4616C14.0671 11.8976 13.6499 11.404 13.1732 11.404H11.9814C11.4451 11.404 11.0876 11.8976 11.0876 12.4616V14.9998H8.88281V10.6285L12.5773 7.38525L16.2123 10.6285Z" fill="#002A7B"/>
<path fill-rule="evenodd" clip-rule="evenodd" d="M11.9797 11.8975H13.1714C13.4098 11.8975 13.6482 12.109 13.6482 12.4615V14.9997H11.4434V12.4615C11.4434 12.109 11.6817 11.8975 11.9797 11.8975Z" fill="#002A7B"/>
<path d="M5.90174 6.46885L12.9928 0.0528789C13.1716 -0.0176263 13.3504 -0.0176263 13.4696 0.0528789L19.0709 5.05874C19.2497 5.27026 19.3093 5.62279 19.1901 5.8343C19.0709 6.11632 18.8326 6.18683 18.6538 6.04582L13.2312 1.18096L6.6168 7.1739L8.64283 9.00703L12.3374 5.69329C12.4565 5.55228 12.6353 5.55228 12.7545 5.69329L17.1641 9.57108C17.3428 9.78259 17.4024 10.1351 17.2833 10.3466C17.1641 10.6287 16.9257 10.6992 16.747 10.5581L12.5757 6.82137L9.29831 9.71209L8.64283 10.2761L4.76954 6.82137L0.598305 10.5581C0.419538 10.6992 0.181182 10.6287 0.0620036 10.3466C-0.0571746 10.1351 0.00241445 9.78259 0.181182 9.57108L4.59078 5.69329C4.70995 5.55228 4.88872 5.55228 5.0079 5.69329L5.90174 6.46885Z" fill="#002A7B"/>
</svg>
