<svg width="18" height="18" viewBox="0 0 18 18" fill="none" xmlns="http://www.w3.org/2000/svg">
<path d="M8.54736 2.14461e-07C6.58051 -0.000218574 4.67377 0.677974 3.14882 1.92017C1.62388 3.16236 0.57405 4.89252 0.176454 6.81877C-0.221143 8.74502 0.0578268 10.7495 0.966299 12.4939C1.87477 14.2384 3.35714 15.6161 5.16333 16.3947C5.20862 14.2229 5.55781 12.1616 5.57727 10.2269C5.59456 9.55424 5.34825 8.90151 4.8909 8.40802C4.22465 7.63166 4.10763 6.80846 4.27874 4.78681L4.44286 2.8479C4.4443 2.78215 4.47031 2.71932 4.51577 2.6718C4.56124 2.62427 4.62285 2.59549 4.68847 2.59113C4.72428 2.5924 4.75948 2.60081 4.792 2.61587C4.82452 2.63093 4.8537 2.65233 4.87783 2.67882C4.90197 2.70531 4.92057 2.73635 4.93254 2.77013C4.94451 2.8039 4.94962 2.83973 4.94756 2.87551V6.37259C4.94756 6.5545 5.04953 6.70195 5.17536 6.70195C5.30119 6.70195 5.40316 6.5545 5.40316 6.37259V2.87551C5.39813 2.84016 5.40075 2.80415 5.41085 2.76991C5.42094 2.73567 5.43827 2.70399 5.46167 2.67703C5.48507 2.65007 5.51399 2.62845 5.54646 2.61363C5.57894 2.59881 5.61423 2.59114 5.64992 2.59114C5.68562 2.59114 5.72091 2.59881 5.75338 2.61363C5.78586 2.62845 5.81478 2.65007 5.83818 2.67703C5.86157 2.70399 5.87891 2.73567 5.889 2.76991C5.8991 2.80415 5.90172 2.84016 5.89669 2.87551V6.37259C5.89669 6.5545 5.99869 6.70195 6.12449 6.70195C6.25029 6.70195 6.35229 6.5545 6.35229 6.37259V2.87551C6.34726 2.84016 6.34988 2.80415 6.35997 2.76991C6.37007 2.73567 6.3874 2.70399 6.4108 2.67703C6.4342 2.65007 6.46311 2.62845 6.49559 2.61363C6.52807 2.59881 6.56335 2.59114 6.59905 2.59114C6.63475 2.59114 6.67003 2.59881 6.70251 2.61363C6.73499 2.62845 6.76391 2.65007 6.7873 2.67703C6.8107 2.70399 6.82803 2.73567 6.83813 2.76991C6.84822 2.80415 6.85084 2.84016 6.84581 2.87551V6.37259C6.84581 6.5545 6.94782 6.70195 7.07362 6.70195C7.19941 6.70195 7.30142 6.5545 7.30142 6.37259V2.87551C7.29714 2.84104 7.3 2.80606 7.30982 2.77274C7.31963 2.73942 7.33619 2.70848 7.35847 2.68183C7.38075 2.65519 7.40827 2.63341 7.43933 2.61784C7.47038 2.60228 7.5043 2.59327 7.53898 2.59138C7.57366 2.58948 7.60837 2.59474 7.64093 2.60682C7.67349 2.6189 7.70323 2.63755 7.72828 2.66161C7.75333 2.68566 7.77317 2.71462 7.78656 2.74666C7.79995 2.77871 7.80661 2.81317 7.80612 2.8479L7.97023 4.78681C8.14135 6.80846 8.02432 7.63166 7.35807 8.40802C6.90073 8.90151 6.65441 9.55424 6.67171 10.2269C6.69287 12.3311 7.10406 14.5848 7.08979 16.9678C8.20696 17.1635 9.35207 17.1326 10.4571 16.877C10.5545 15.8915 10.7397 14.8008 10.8952 13.7882C11.0473 12.7973 11.1844 12.3684 10.7082 11.8256C10.0849 11.1151 9.34374 8.96868 9.90267 5.74909C10.2582 3.7013 11.2539 2.91788 11.5207 2.71741C11.8724 2.45308 12.0671 2.64095 12.0671 2.9387V16.3332C13.8479 15.5288 15.2992 14.1384 16.1792 12.3937C17.0591 10.649 17.3146 8.65544 16.9029 6.74525C16.4913 4.83506 15.4374 3.12364 13.917 1.89623C12.3966 0.668821 10.5014 -0.000437387 8.54736 2.14461e-07Z" fill="#002A7B"/>
</svg>
