<svg width="17" height="15" viewBox="0 0 17 15" fill="none" xmlns="http://www.w3.org/2000/svg">
<path fill-rule="evenodd" clip-rule="evenodd" d="M0.407056 0.764163H3.13853L3.82182 3.17174C3.82352 3.17681 3.82428 3.18116 3.82579 3.18641L5.7301 9.89445C5.73149 9.90058 5.73325 9.90663 5.73538 9.91256V9.91401L4.94806 11.102C4.87748 11.2078 4.83789 11.3298 4.83346 11.4553C4.82902 11.5807 4.85991 11.705 4.92287 11.8151C4.98582 11.9252 5.07853 12.0169 5.19124 12.0807C5.30395 12.1446 5.4325 12.1781 5.56338 12.1778H6.64997C6.37498 12.3746 6.1716 12.6495 6.06868 12.9634C5.96577 13.2773 5.96855 13.6144 6.07664 13.9267C6.18472 14.239 6.39262 14.5108 6.67082 14.7034C6.94902 14.8959 7.28339 14.9996 7.62648 14.9996C7.96956 14.9996 8.30394 14.8959 8.58214 14.7034C8.86034 14.5108 9.06823 14.239 9.17632 13.9267C9.2844 13.6144 9.28719 13.2773 9.18427 12.9634C9.08136 12.6495 8.87797 12.3746 8.60299 12.1778H12.6854C12.4103 12.3746 12.2069 12.6495 12.1039 12.9635C12.001 13.2774 12.0038 13.6145 12.1118 13.9269C12.2199 14.2393 12.4279 14.5111 12.7061 14.7037C12.9843 14.8963 13.3188 15 13.6619 15C14.005 15 14.3394 14.8963 14.6177 14.7037C14.8959 14.5111 15.1038 14.2393 15.2119 13.9269C15.32 13.6145 15.3228 13.2774 15.2198 12.9635C15.1169 12.6495 14.9134 12.3746 14.6384 12.1778H15.1786C15.2316 12.1789 15.2842 12.1698 15.3335 12.1512C15.3828 12.1325 15.4277 12.1045 15.4656 12.069C15.5035 12.0334 15.5336 11.991 15.5541 11.9441C15.5747 11.8973 15.5853 11.847 15.5853 11.7961C15.5853 11.7453 15.5747 11.695 15.5541 11.6481C15.5336 11.6012 15.5035 11.5588 15.4656 11.5232C15.4277 11.4877 15.3828 11.4598 15.3335 11.4411C15.2842 11.4224 15.2316 11.4133 15.1786 11.4144H5.68422L6.49986 10.1855H14.7245C14.8123 10.1854 14.8976 10.1576 14.9672 10.1063C15.0368 10.055 15.0868 9.98305 15.1095 9.9017L16.9872 3.17736C16.9941 3.15242 16.9984 3.12688 17 3.10111V3.05348C16.9953 2.97807 16.9669 2.90579 16.9186 2.84612C16.8815 2.79961 16.8337 2.76192 16.779 2.73598C16.7242 2.71004 16.664 2.69654 16.6029 2.69653H4.51172L3.82711 0.281886C3.80419 0.200977 3.75415 0.129549 3.68471 0.078622C3.61528 0.0276951 3.5303 9.88305e-05 3.44289 9.05575e-05H0.407056C0.354022 -0.00101707 0.301292 0.0080457 0.251958 0.0267472C0.202625 0.0454486 0.157682 0.0734121 0.119767 0.108997C0.0818513 0.144582 0.0517267 0.187072 0.0311603 0.233974C0.010594 0.280876 0 0.331245 0 0.382127C0 0.433008 0.010594 0.483378 0.0311603 0.530279C0.0517267 0.577181 0.0818513 0.619671 0.119767 0.655256C0.157682 0.690841 0.202625 0.718805 0.251958 0.737506C0.301292 0.756208 0.354022 0.76527 0.407056 0.764163Z" fill="#002A7B"/>
</svg>
