<svg width="53" height="53" viewBox="0 0 53 53" fill="none" xmlns="http://www.w3.org/2000/svg">
<g filter="url(#filter0_d_623_199)">
<rect x="4" y="4" width="45" height="45" rx="22.5" fill="#002A7B"/>
</g>
<path d="M20.68 25.7428C20.4113 25.2503 19.9896 24.8626 19.4811 24.6406C18.9726 24.4187 18.4062 24.3749 17.8706 24.5163C17.3351 24.6577 16.8608 24.9761 16.5223 25.4217C16.1837 25.8673 16 26.4148 16 26.9782C16 27.5417 16.1837 28.0891 16.5223 28.5347C16.8608 28.9803 17.3351 29.2988 17.8706 29.4401C18.4062 29.5815 18.9726 29.5378 19.4811 29.3158C19.9896 29.0938 20.4113 28.7062 20.68 28.2137M20.68 25.7428C20.8798 26.109 20.9941 26.5295 20.9941 26.9782C20.9941 27.427 20.8798 27.8486 20.68 28.2137M20.68 25.7428L31.2971 19.736M20.68 28.2137L31.2971 34.2203M31.2971 19.736C31.4528 20.0346 31.6653 20.2986 31.9224 20.5125C32.1794 20.7264 32.4757 20.8861 32.794 20.982C33.1122 21.078 33.4462 21.1083 33.776 21.0713C34.106 21.0343 34.4254 20.9307 34.7156 20.7665C35.0056 20.6024 35.2607 20.3809 35.4659 20.1152C35.6711 19.8494 35.8222 19.5447 35.9102 19.2188C35.9984 18.8929 36.022 18.5523 35.9794 18.2171C35.9367 17.8818 35.829 17.5586 35.6624 17.2662C35.3338 16.6901 34.7967 16.2683 34.166 16.0913C33.5354 15.9144 32.8618 15.9965 32.29 16.3201C31.7181 16.6436 31.2939 17.1827 31.1082 17.8214C30.9226 18.4602 30.9904 19.1477 31.2971 19.736ZM31.2971 34.2203C31.1379 34.5124 31.0365 34.8336 30.9991 35.1655C30.9617 35.4975 30.9889 35.8336 31.079 36.1549C31.1691 36.4761 31.3205 36.7761 31.5244 37.0378C31.7284 37.2994 31.981 37.5177 32.2678 37.6798C32.5546 37.8421 32.8699 37.9452 33.1958 37.9834C33.5216 38.0215 33.8518 37.9939 34.1671 37.9021C34.4826 37.8103 34.7771 37.6562 35.034 37.4483C35.2909 37.2406 35.5052 36.9834 35.6646 36.6913C35.9863 36.1016 36.0647 35.4057 35.8827 34.7569C35.7007 34.1082 35.273 33.5596 34.694 33.232C34.1148 32.9043 33.4315 32.8243 32.7946 33.0097C32.1575 33.195 31.6189 33.6306 31.2971 34.2203Z" stroke="white" stroke-width="1.5" stroke-linecap="round" stroke-linejoin="round"/>
<defs>
<filter id="filter0_d_623_199" x="0" y="0" width="53" height="53" filterUnits="userSpaceOnUse" color-interpolation-filters="sRGB">
<feFlood flood-opacity="0" result="BackgroundImageFix"/>
<feColorMatrix in="SourceAlpha" type="matrix" values="0 0 0 0 0 0 0 0 0 0 0 0 0 0 0 0 0 0 127 0" result="hardAlpha"/>
<feOffset/>
<feGaussianBlur stdDeviation="2"/>
<feComposite in2="hardAlpha" operator="out"/>
<feColorMatrix type="matrix" values="0 0 0 0 0 0 0 0 0 0 0 0 0 0 0 0 0 0 0.25 0"/>
<feBlend mode="normal" in2="BackgroundImageFix" result="effect1_dropShadow_623_199"/>
<feBlend mode="normal" in="SourceGraphic" in2="effect1_dropShadow_623_199" result="shape"/>
</filter>
</defs>
</svg>
