<svg width="14" height="15" viewBox="0 0 14 15" fill="none" xmlns="http://www.w3.org/2000/svg">
<path d="M13.0493 3.83333C13.0189 3.55556 12.7755 3.33333 12.4409 3.33333H10.3421C10.0988 1.44444 8.63869 0 6.93529 0C5.23188 0 3.77182 1.44444 3.52848 3.33333H1.42964C1.12546 3.33333 0.851702 3.55556 0.821284 3.83333L0 14.4167C0 14.5556 0.0304179 14.7222 0.15209 14.8333C0.273761 14.9444 0.425851 15 0.577941 15H13.4143C13.5664 15 13.7489 14.9444 13.8402 14.8333C13.9618 14.7222 14.0227 14.5556 13.9922 14.4167L13.0493 3.83333ZM6.96571 1.25C7.90866 1.25 8.76036 2.11111 8.97329 3.25H4.95812C5.17105 2.08333 5.99233 1.25 6.96571 1.25ZM4.62353 6.36111C4.25851 6.36111 3.95433 6.08333 3.95433 5.75C3.95433 5.41667 4.25851 5.13889 4.62353 5.13889C4.98854 5.13889 5.29272 5.41667 5.29272 5.75C5.32314 6.08333 5.01896 6.36111 4.62353 6.36111ZM9.18622 6.36111C8.8212 6.36111 8.51702 6.08333 8.51702 5.75C8.51702 5.41667 8.8212 5.13889 9.18622 5.13889C9.55123 5.13889 9.85541 5.41667 9.85541 5.75C9.85541 6.08333 9.58165 6.36111 9.18622 6.36111Z" fill="#002A7B"/>
</svg>
