<svg width="32" height="23" viewBox="0 0 32 23" fill="none" xmlns="http://www.w3.org/2000/svg">
<path d="M9.73387 5.0127C6.60237 5.0127 4.05469 7.57175 4.05469 10.7172C4.05469 13.8627 6.60237 16.4218 9.73387 16.4218C12.8654 16.4218 15.4131 13.8627 15.4131 10.7172C15.4131 7.57175 12.8654 5.0127 9.73387 5.0127ZM9.73387 14.5384C7.63618 14.5384 5.92969 12.8242 5.92969 10.7172C5.92969 8.61023 7.63625 6.89605 9.73387 6.89605C11.8315 6.89605 13.5381 8.61023 13.5381 10.7172C13.5381 12.8242 11.8315 14.5384 9.73387 14.5384Z" fill="white"/>
<path d="M31.0626 17.8738H23.8821V15.9301C23.8821 15.41 23.4624 14.9884 22.9447 14.9884H19.4658V10.5488C19.4658 9.84211 19.39 9.15291 19.2476 8.48834L20.6126 7.46397C21.2055 7.01918 21.5902 6.36911 21.6964 5.63359C21.8023 4.898 21.6169 4.16506 21.174 3.56959L19.6156 1.47422C19.1728 0.878772 18.5257 0.492236 17.7934 0.385698C17.061 0.279225 16.3314 0.465491 15.7386 0.910343L14.3562 1.94765C12.9801 1.19838 11.4051 0.772418 9.73294 0.772418C4.36613 0.77248 0 5.15809 0 10.5488V18.0786C0 20.5952 2.03831 22.6425 4.54375 22.6425H22.9447C23.4624 22.6425 23.8821 22.2209 23.8821 21.7009V19.7572H30.125V21.6888C30.125 22.2088 30.5447 22.6306 31.0626 22.6306C31.5803 22.6306 32 22.2088 32 21.6888V18.8154C32 18.2954 31.5803 17.8738 31.0626 17.8738ZM16.8607 2.41918C17.0522 2.27547 17.2878 2.2152 17.5247 2.24966C17.7613 2.28408 17.9703 2.409 18.1134 2.60136L19.672 4.69679C19.8151 4.88922 19.875 5.12602 19.8407 5.3637C19.8066 5.60138 19.6821 5.81143 19.4905 5.95515L18.6345 6.59749C18.0297 5.22791 17.1205 4.02318 15.9936 3.06988L16.8607 2.41918ZM22.0071 20.7593H4.54375C3.0722 20.7593 1.875 19.5566 1.875 18.0786V10.5488C1.875 6.19659 5.40007 2.65584 9.73294 2.65584C14.0658 2.65584 17.5909 6.19665 17.5909 10.5489V15.9302C17.5909 16.4502 18.0107 16.8718 18.5284 16.8718H22.0071V20.7593Z" fill="white"/>
</svg>
