<svg width="14" height="14" viewBox="0 0 14 14" fill="none" xmlns="http://www.w3.org/2000/svg">
<path d="M12.8732 12.0337H1.12891V12.2876H12.8732V12.0337Z" fill="#002A7B"/>
<path d="M12.8737 4.38467L12.7902 4.35107H1.21203L1.12891 4.38467V11.8425H12.873V4.38467H12.8737ZM4.38601 11.6463H2.92423V4.57805H4.38601V11.6463ZM6.61691 11.6463H5.15513V4.57805H6.61691V11.6463ZM8.84746 11.6463H7.38603V4.57805H8.84746V11.6463ZM11.0784 11.6463H9.61693V4.57805H11.0784V11.6463Z" fill="#002A7B"/>
<path d="M14 12.4517H0V13.4703H14V12.4517Z" fill="#002A7B"/>
<path d="M7.00087 0C3.80537 0 1.21484 1.87845 1.21484 4.19527H12.7869C12.7871 1.87845 10.1967 0 7.00087 0Z" fill="#002A7B"/>
</svg>
