<svg width="14" height="18" viewBox="0 0 14 18" fill="none" xmlns="http://www.w3.org/2000/svg">
<path d="M10.9627 12.0854C10.9627 9.07411 8.50824 6.63281 5.48135 6.63281C2.45391 6.63281 2.2948e-08 9.07411 2.2948e-08 12.0854C-0.000274003 15.0969 2.45363 17.5377 5.48135 17.5377C8.50824 17.5377 10.9627 15.0969 10.9627 12.0854ZM2.91619 8.51263C2.91619 8.09721 3.25434 7.7607 3.6725 7.7607C4.08984 7.7607 4.42826 8.09748 4.42826 8.51263C4.42826 8.92833 4.09012 9.26483 3.6725 9.26483C3.25434 9.26511 2.91619 8.92833 2.91619 8.51263ZM4.91028 11.3173C4.49293 11.3173 4.15424 10.9805 4.15424 10.5651C4.15424 10.1497 4.49293 9.81316 4.91028 9.81316C5.32762 9.81316 5.66604 10.1499 5.66604 10.5651C5.66604 10.9802 5.32762 11.3173 4.91028 11.3173ZM5.75894 8.97546C5.34159 8.97546 5.00262 8.63868 5.00262 8.22353C5.00262 7.80784 5.34132 7.47133 5.75894 7.47133C6.17655 7.47133 6.5147 7.80811 6.5147 8.22353C6.5147 8.63841 6.17655 8.97546 5.75894 8.97546Z" fill="#002A7B"/>
<path d="M11.3254 4.95876C11.1634 4.69871 11.151 3.97461 11.3254 3.72306C11.7996 3.04013 12.647 2.74846 12.647 1.92315C12.6468 0.860638 11.7384 0 10.6175 0C9.49657 0 8.58792 0.860638 8.58792 1.92289C8.58792 2.7482 9.43533 3.03986 9.90902 3.72279C10.0834 3.97434 10.0935 4.71465 9.90902 4.9585C9.54325 5.44301 9.10087 6.05316 8.68128 6.79718C10.3632 7.82942 11.4808 9.64526 11.4808 11.7145C11.4808 14.0523 10.0554 16.0671 8 16.9928C8.0011 16.9955 8.0022 16.9979 8.00275 17H13.2319C13.7114 15.7109 14 14.0613 14 12.2625C14 8.67412 12.2332 6.41415 11.3254 4.95876Z" fill="#002A7B"/>
</svg>
