<svg width="18" height="20" viewBox="0 0 18 20" fill="none" xmlns="http://www.w3.org/2000/svg">
<path d="M15.2222 18.7778H2.77778C1.8 18.7778 1 17.9778 1 17.0001V4.55561C1 3.57783 1.8 2.77783 2.77778 2.77783H15.2222C16.2 2.77783 17 3.57783 17 4.55561V17.0001C17 17.9778 16.2 18.7778 15.2222 18.7778Z" stroke="white" stroke-width="1.5" stroke-linecap="round" stroke-linejoin="round"/>
<path d="M12.5547 1V2.77778" stroke="white" stroke-width="1.5" stroke-linecap="round" stroke-linejoin="round"/>
<path d="M5.44531 1V2.77778" stroke="white" stroke-width="1.5" stroke-linecap="round" stroke-linejoin="round"/>
<path d="M9.00065 11.6663C10.4734 11.6663 11.6673 10.4724 11.6673 8.99967C11.6673 7.52692 10.4734 6.33301 9.00065 6.33301C7.52789 6.33301 6.33398 7.52692 6.33398 8.99967C6.33398 10.4724 7.52789 11.6663 9.00065 11.6663Z" stroke="white" stroke-width="1.5" stroke-linecap="round" stroke-linejoin="round"/>
<path d="M13.4436 15.6663C12.1991 14.7775 10.688 14.333 8.99913 14.333C7.31024 14.333 5.79913 14.8663 4.55469 15.6663" stroke="white" stroke-width="1.5" stroke-linecap="round" stroke-linejoin="round"/>
</svg>
