<svg width="20" height="23" viewBox="0 0 20 23" fill="none" xmlns="http://www.w3.org/2000/svg">
<path d="M15.9206 11.9904C15.9105 10.1313 16.7503 8.72814 18.4501 7.69475C17.499 6.33208 16.0623 5.58237 14.1651 5.43546C12.3692 5.29362 10.4063 6.48405 9.68794 6.48405C8.9291 6.48405 7.18881 5.48612 5.82288 5.48612C2.99997 5.53171 0 7.74034 0 12.2336C0 13.5608 0.242831 14.9319 0.728493 16.3469C1.37604 18.206 3.71329 22.7651 6.15172 22.6891C7.42658 22.6587 8.32708 21.7824 9.98642 21.7824C11.5952 21.7824 12.4299 22.6891 13.8515 22.6891C16.3101 22.6537 18.4248 18.5099 19.042 16.6458C15.7435 15.0906 15.9206 12.0867 15.9206 11.9904ZM13.0572 3.67261C14.4383 2.03133 14.3118 0.536961 14.2714 0C13.0522 0.0709193 11.6407 0.830769 10.8363 1.76792C9.95101 2.77092 9.42993 4.01201 9.54123 5.41013C10.8616 5.51145 12.0657 4.83265 13.0572 3.67261Z" fill="black"/>
</svg>
