<svg xmlns="http://www.w3.org/2000/svg" width="24" height="24" viewBox="0 0 24 24" fill="none">
  <path fill-rule="evenodd" clip-rule="evenodd" d="M3.0002 8.39922C2.66883 8.39922 2.4002 8.66784 2.4002 8.99922V22.7992H1.2002V8.99922C1.2002 8.00508 2.00609 7.19922 3.0002 7.19922H10.2002C11.1943 7.19922 12.0002 8.00508 12.0002 8.99922V22.7992H10.8002V8.99922C10.8002 8.66784 10.5316 8.39922 10.2002 8.39922H3.0002Z" fill="#33583B"/>
  <path fill-rule="evenodd" clip-rule="evenodd" d="M20.9998 9.59844H16.7998V8.39844H20.9998C21.9939 8.39844 22.7998 9.2043 22.7998 10.1984V22.7984H21.5998V10.1984C21.5998 9.86706 21.3312 9.59844 20.9998 9.59844Z" fill="#33583B"/>
  <path fill-rule="evenodd" clip-rule="evenodd" d="M8.39961 1.2C8.06823 1.2 7.79961 1.46863 7.79961 1.8V7.8H6.59961V1.8C6.59961 0.80589 7.40547 0 8.39961 0H15.5996C16.5938 0 17.3996 0.80589 17.3996 1.8V22.8H16.1996V1.8C16.1996 1.46863 15.931 1.2 15.5996 1.2H8.39961Z" fill="#33583B"/>
  <path fill-rule="evenodd" clip-rule="evenodd" d="M24 24.0008H0V22.8008H24V24.0008Z" fill="#33583B"/>
  <path fill-rule="evenodd" clip-rule="evenodd" d="M9.6 2.40234C9.26862 2.40234 9 2.67098 9 3.00234V4.20234C9 4.53372 9.26862 4.80234 9.6 4.80234H10.8C11.1314 4.80234 11.4 4.53372 11.4 4.20234V3.00234C11.4 2.67098 11.1314 2.40234 10.8 2.40234H9.6Z" fill="#33583B"/>
  <path fill-rule="evenodd" clip-rule="evenodd" d="M4.19961 9.60156C3.86823 9.60156 3.59961 9.87018 3.59961 10.2016V11.4016C3.59961 11.7329 3.86823 12.0016 4.19961 12.0016H5.39961C5.73099 12.0016 5.99961 11.7329 5.99961 11.4016V10.2016C5.99961 9.87018 5.73099 9.60156 5.39961 9.60156H4.19961Z" fill="#33583B"/>
  <path fill-rule="evenodd" clip-rule="evenodd" d="M7.8002 9.60156C7.46882 9.60156 7.2002 9.87018 7.2002 10.2016V11.4016C7.2002 11.7329 7.46882 12.0016 7.8002 12.0016H9.0002C9.33158 12.0016 9.6002 11.7329 9.6002 11.4016V10.2016C9.6002 9.87018 9.33158 9.60156 9.0002 9.60156H7.8002Z" fill="#33583B"/>
  <path fill-rule="evenodd" clip-rule="evenodd" d="M9.6 6C9.26862 6 9 6.26862 9 6.6V7.8C9 8.13138 9.26862 8.4 9.6 8.4H10.8C11.1314 8.4 11.4 8.13138 11.4 7.8V6.6C11.4 6.26862 11.1314 6 10.8 6H9.6Z" fill="#33583B"/>
  <path fill-rule="evenodd" clip-rule="evenodd" d="M4.19961 13.1992C3.86823 13.1992 3.59961 13.4678 3.59961 13.7992V14.9992C3.59961 15.3306 3.86823 15.5992 4.19961 15.5992H5.39961C5.73099 15.5992 5.99961 15.3306 5.99961 14.9992V13.7992C5.99961 13.4678 5.73099 13.1992 5.39961 13.1992H4.19961Z" fill="#33583B"/>
  <path fill-rule="evenodd" clip-rule="evenodd" d="M4.19961 16.8008C3.86823 16.8008 3.59961 17.0694 3.59961 17.4008V18.6008C3.59961 18.9322 3.86823 19.2008 4.19961 19.2008H5.39961C5.73099 19.2008 5.99961 18.9322 5.99961 18.6008V17.4008C5.99961 17.0694 5.73099 16.8008 5.39961 16.8008H4.19961Z" fill="#33583B"/>
  <path fill-rule="evenodd" clip-rule="evenodd" d="M7.8002 13.1992C7.46882 13.1992 7.2002 13.4678 7.2002 13.7992V14.9992C7.2002 15.3306 7.46882 15.5992 7.8002 15.5992H9.0002C9.33158 15.5992 9.6002 15.3306 9.6002 14.9992V13.7992C9.6002 13.4678 9.33158 13.1992 9.0002 13.1992H7.8002Z" fill="#33583B"/>
  <path fill-rule="evenodd" clip-rule="evenodd" d="M7.8002 16.8008C7.46882 16.8008 7.2002 17.0694 7.2002 17.4008V18.6008C7.2002 18.9322 7.46882 19.2008 7.8002 19.2008H9.0002C9.33158 19.2008 9.6002 18.9322 9.6002 18.6008V17.4008C9.6002 17.0694 9.33158 16.8008 9.0002 16.8008H7.8002Z" fill="#33583B"/>
  <path fill-rule="evenodd" clip-rule="evenodd" d="M13.1996 2.40234C12.8682 2.40234 12.5996 2.67098 12.5996 3.00234V4.20234C12.5996 4.53372 12.8682 4.80234 13.1996 4.80234H14.3996C14.731 4.80234 14.9996 4.53372 14.9996 4.20234V3.00234C14.9996 2.67098 14.731 2.40234 14.3996 2.40234H13.1996Z" fill="#33583B"/>
  <path fill-rule="evenodd" clip-rule="evenodd" d="M13.1996 6C12.8682 6 12.5996 6.26862 12.5996 6.6V7.8C12.5996 8.13138 12.8682 8.4 13.1996 8.4H14.3996C14.731 8.4 14.9996 8.13138 14.9996 7.8V6.6C14.9996 6.26862 14.731 6 14.3996 6H13.1996Z" fill="#33583B"/>
  <path fill-rule="evenodd" clip-rule="evenodd" d="M13.1996 9.60156C12.8682 9.60156 12.5996 9.87018 12.5996 10.2016V11.4016C12.5996 11.7329 12.8682 12.0016 13.1996 12.0016H14.3996C14.731 12.0016 14.9996 11.7329 14.9996 11.4016V10.2016C14.9996 9.87018 14.731 9.60156 14.3996 9.60156H13.1996Z" fill="#33583B"/>
  <path fill-rule="evenodd" clip-rule="evenodd" d="M13.1996 13.1992C12.8682 13.1992 12.5996 13.4678 12.5996 13.7992V14.9992C12.5996 15.3306 12.8682 15.5992 13.1996 15.5992H14.3996C14.731 15.5992 14.9996 15.3306 14.9996 14.9992V13.7992C14.9996 13.4678 14.731 13.1992 14.3996 13.1992H13.1996Z" fill="#33583B"/>
  <path fill-rule="evenodd" clip-rule="evenodd" d="M18.6 10.8008C18.2686 10.8008 18 11.0694 18 11.4008V12.6008C18 12.9322 18.2686 13.2008 18.6 13.2008H19.8C20.1314 13.2008 20.4 12.9322 20.4 12.6008V11.4008C20.4 11.0694 20.1314 10.8008 19.8 10.8008H18.6Z" fill="#33583B"/>
  <path fill-rule="evenodd" clip-rule="evenodd" d="M18.6 14.4023C18.2686 14.4023 18 14.671 18 15.0023V16.2023C18 16.5337 18.2686 16.8023 18.6 16.8023H19.8C20.1314 16.8023 20.4 16.5337 20.4 16.2023V15.0023C20.4 14.671 20.1314 14.4023 19.8 14.4023H18.6Z" fill="#33583B"/>
  <path fill-rule="evenodd" clip-rule="evenodd" d="M18.6 18C18.2686 18 18 18.2686 18 18.6V19.8C18 20.1314 18.2686 20.4 18.6 20.4H19.8C20.1314 20.4 20.4 20.1314 20.4 19.8V18.6C20.4 18.2686 20.1314 18 19.8 18H18.6Z" fill="#33583B"/>
  <path fill-rule="evenodd" clip-rule="evenodd" d="M13.1996 16.8008C12.8682 16.8008 12.5996 17.0694 12.5996 17.4008V18.6008C12.5996 18.9322 12.8682 19.2008 13.1996 19.2008H14.3996C14.731 19.2008 14.9996 18.9322 14.9996 18.6008V17.4008C14.9996 17.0694 14.731 16.8008 14.3996 16.8008H13.1996Z" fill="#33583B"/>
</svg>