<svg width="28" height="24" viewBox="0 0 28 24" fill="none" xmlns="http://www.w3.org/2000/svg">
<g id="&#240;&#159;&#166;&#134; emoji &#34;house buildings&#34;">
<path id="Vector" d="M27.2469 13.8378H27.6798L25.9491 12.1435V4.29231H27.6923L25.5734 2.89385V1.15754H25.9486V0.423692H23.3243V1.15754H23.6995V1.65692L21.1892 0L14.6862 4.29231H16.4294V12.1435L14.6986 13.8378H15.1315V19.716C15.0577 19.698 14.9825 19.6832 14.9026 19.6832C14.7923 19.6832 14.688 19.7049 14.5892 19.7391C14.5182 19.2678 13.7197 19.1331 13.4815 19.4811C13.4931 19.4298 13.5005 19.3772 13.5005 19.3228C13.5005 18.9245 13.1746 18.6014 12.7731 18.6014C12.6978 18.6014 12.6282 18.6166 12.5608 18.6383V13.8378H12.9937L11.2629 12.1435V4.29231H13.0062L10.8877 2.89431V1.15754H11.2629V0.423692H8.63861V1.15754H9.01385V1.65738L6.50308 0L0 4.29231H1.74323V12.1435L0.0124615 13.8378H0.445385V22.3062H0V24H27.6923V22.3062H27.2469V13.8378ZM17.3529 4.29231H25.026V12.1435H17.3529V4.29231ZM26.3238 14.7522V22.3062H20.3238V16.8018H20.7568V15.9545H16.8623V16.8018H17.2952V22.3062H16.0546V14.7522H26.3238ZM19.3832 19.5535C19.3832 19.3957 19.5134 19.2683 19.6754 19.2683C19.8369 19.2683 19.9671 19.3957 19.9671 19.5535C19.9671 19.7118 19.8369 19.8397 19.6754 19.8397C19.5134 19.8397 19.3832 19.7118 19.3832 19.5535ZM4.69708 19.5535C4.69708 19.3957 4.82723 19.2683 4.98923 19.2683C5.15077 19.2683 5.28092 19.3957 5.28092 19.5535C5.28092 19.7118 5.15077 19.8397 4.98923 19.8397C4.82723 19.8397 4.69708 19.7118 4.69708 19.5535ZM15.1315 21.7357C15.1191 21.7329 15.1075 21.7278 15.0942 21.7278C14.9598 21.7278 14.8518 21.8608 14.8518 21.7278C14.8518 21.5949 14.9598 21.4878 15.0942 21.4878C15.1075 21.4878 15.1191 21.4929 15.1315 21.4952V21.7357ZM12.5608 21.7315V21.3568C12.8137 21.3729 13.0154 21.5769 13.0154 21.8308C13.0154 22.0865 12.8146 21.7583 12.5608 21.7315ZM14.8334 20.1046C14.9478 20.1046 15.0485 20.1494 15.1315 20.2149V20.5731C15.0489 20.5071 14.9465 20.4337 14.8334 20.4337C14.5643 20.4337 14.3455 20.8542 14.3455 20.5874C14.3455 20.3202 14.5643 20.1046 14.8334 20.1046ZM14.0515 21.1611C14.2334 21.1611 14.3802 21.306 14.3802 21.4865C14.3802 21.6665 14.2334 21.3988 14.0515 21.3988C13.8697 21.3988 13.7229 21.6665 13.7229 21.4865C13.7229 21.306 13.8702 21.1611 14.0515 21.1611ZM12.8382 19.4778C13.02 19.4778 13.1672 19.6237 13.1672 19.8042C13.1672 19.9842 13.02 19.716 12.8382 19.716C12.7209 19.716 12.6185 19.8268 12.5603 19.8572V19.6403C12.618 19.5452 12.7186 19.4778 12.8382 19.4778ZM2.66631 4.29231H10.3394V12.1435H2.66631V4.29231ZM1.36846 14.7522H11.6377V22.3062H5.63769V16.8018H6.07062V15.9545H2.17615V16.8018H2.60908V22.3062H1.36846V14.7522Z" fill="#33583B"/>
<path id="Vector_2" d="M25.9204 15.9434H21.4785V20.3464H25.9204V15.9434ZM23.4761 19.9066H21.9221V18.3646H23.4761V19.9066ZM23.4761 17.9238H21.9221V16.3823H23.4761V17.9238ZM25.4754 19.9066H23.921V18.3646H25.4754V19.9066ZM25.4754 17.9238H23.921V16.3823H25.4754V17.9238Z" fill="#33583B"/>
<path id="Vector_3" d="M18.9685 10.3738H23.4104V5.9707H18.9685V10.3738ZM21.411 6.41055H22.9654V7.95163H21.411V6.41055ZM21.411 8.39286H22.9654V9.93439H21.411V8.39286ZM19.4125 6.41055H20.9665V7.95163H19.4125V6.41055ZM19.4125 8.39286H20.9665V9.93439H19.4125V8.39286Z" fill="#33583B"/>
<path id="Vector_4" d="M4.28223 10.3718H8.72407V5.96875H4.28223V10.3718ZM6.72423 6.4086H8.27869V7.94967H6.72423V6.4086ZM6.72423 8.3909H8.27869V9.93244H6.72423V8.3909ZM4.72577 6.4086H6.27977V7.94967H4.72577V6.4086ZM4.72577 8.3909H6.27977V9.93244H4.72577V8.3909Z" fill="#33583B"/>
<path id="Vector_5" d="M11.2336 15.9434H6.79175V20.3464H11.2336V15.9434ZM8.78975 19.9066H7.23575V18.3646H8.78975V19.9066ZM8.78975 17.9238H7.23575V16.3823H8.78975V17.9238ZM10.7887 19.9066H9.23421V18.3646H10.7887V19.9066ZM10.7887 17.9238H9.23421V16.3823H10.7887V17.9238Z" fill="#33583B"/>
</g>
</svg>
