<svg width="24" height="24" viewBox="0 0 24 24" fill="none" xmlns="http://www.w3.org/2000/svg">
<g id="&#240;&#159;&#166;&#134; icon &#34;Environmental&#34;">
<g id="Group">
<path id="Vector" fill-rule="evenodd" clip-rule="evenodd" d="M11.9678 13.3331C11.9785 13.3332 11.9892 13.3333 11.9998 13.3333H12.0078H12.0211C15.703 13.3333 18.6878 10.3485 18.6878 6.66666C18.6878 2.9848 15.703 0 12.0211 0L12.0078 1.33514e-05L11.9998 0C11.9892 0 11.9785 6.66293e-05 11.9678 0.000206629C8.31049 0.0288533 5.35449 3.00253 5.35449 6.66666C5.35449 10.3308 8.31049 13.3044 11.9678 13.3331ZM17.3132 7.33332H15.9801C15.9438 7.94232 15.8583 8.52726 15.7304 9.07692H16.7801C17.0518 8.54146 17.2358 7.95392 17.3132 7.33332ZM15.8199 10.4103H15.3101C15.2115 10.6519 15.1037 10.8822 14.9874 11.0997C15.2879 10.8982 15.5668 10.667 15.8199 10.4103ZM14.3553 9.07692C14.5007 8.54532 14.6017 7.95926 14.6441 7.33332H12.6878V9.07692H14.3553ZM12.6878 10.4103H13.8436C13.7924 10.5089 13.7395 10.6039 13.6849 10.6947C13.3523 11.249 13.0069 11.5912 12.6878 11.7854V10.4103ZM11.3545 9.07692V7.33332H9.35555C9.39795 7.95926 9.49889 8.54532 9.64429 9.07692H11.3545ZM10.1561 10.4103H11.3545V11.8106C11.0238 11.6214 10.6622 11.2738 10.3148 10.6947C10.2602 10.6039 10.2073 10.5089 10.1561 10.4103ZM8.26922 9.07692C8.14136 8.52726 8.05589 7.94232 8.01956 7.33332H6.72909C6.80649 7.95392 6.99049 8.54146 7.26222 9.07692H8.26922ZM8.22242 10.4103H8.68955C8.78129 10.6351 8.88102 10.8501 8.98815 11.0542C8.71302 10.8637 8.45669 10.6479 8.22242 10.4103ZM15.9801 5.99999C15.9438 5.39099 15.8583 4.80606 15.7304 4.25639H16.7801C17.0518 4.79186 17.2358 5.37939 17.3132 5.99999H15.9801ZM15.8199 2.92306H15.3101C15.2115 2.68146 15.1037 2.45116 14.9874 2.23366C15.2879 2.43513 15.5668 2.66634 15.8199 2.92306ZM12.6878 2.92306H13.8436C13.7924 2.8244 13.7395 2.72946 13.6849 2.63861C13.3523 2.08433 13.0069 1.7421 12.6878 1.54792V2.92306ZM14.3553 4.25639H12.6878V5.99999H14.6441C14.6017 5.37406 14.5007 4.78799 14.3553 4.25639ZM11.3545 1.52275V2.92306H10.1561C10.2073 2.8244 10.2602 2.72946 10.3148 2.63861C10.6622 2.05954 11.0238 1.71192 11.3545 1.52275ZM11.3545 4.25639H9.64429C9.49889 4.78799 9.39795 5.37406 9.35555 5.99999H11.3545V4.25639ZM8.98815 2.27913C8.88102 2.48318 8.78129 2.6982 8.68955 2.92306H8.22249C8.45669 2.68546 8.71302 2.46968 8.98815 2.27913ZM8.26922 4.25639H7.26222C6.99049 4.79186 6.80649 5.37939 6.72909 5.99999H8.01956C8.05589 5.39099 8.14136 4.80606 8.26922 4.25639Z" fill="#33583B"/>
<path id="Vector_2" fill-rule="evenodd" clip-rule="evenodd" d="M1.81995 7.33444C1.12777 7.31804 0.433931 7.74284 0.208611 8.40404C0.152371 8.56911 0.121365 8.78511 0.0999513 8.98217C0.0766313 9.19691 0.0585714 9.45437 0.0445581 9.73544C0.0164848 10.2985 0.00337153 10.9835 0.000578199 11.6646C-0.00493513 13.0097 0.0295848 14.4099 0.0782914 14.8439C0.163585 15.604 0.600637 16.312 0.98089 16.928L1.02324 16.9966C1.13856 17.1837 1.25276 17.369 1.36472 17.5608C1.8672 18.4216 2.4141 19.0015 2.90953 19.5269L2.92073 19.5388C3.19913 19.834 3.45706 20.1084 3.70106 20.4146C3.47319 20.6538 3.33333 20.9776 3.33333 21.334V22.6673C3.33333 23.4037 3.93026 24.0006 4.66666 24.0006H9.99998C10.7364 24.0006 11.3333 23.4037 11.3333 22.6673V21.334C11.3333 20.629 10.7863 20.0518 10.0935 20.0038C10.0033 19.2466 9.88652 18.2238 9.87585 17.9326C9.86659 17.6821 9.78259 17.4372 9.70432 17.2512C9.62092 17.053 9.51665 16.8586 9.42005 16.6938C9.32252 16.5273 9.22652 16.3802 9.15532 16.2752C9.11952 16.2224 9.08945 16.1794 9.06792 16.1491C9.05719 16.1339 9.04845 16.1219 9.04225 16.1133L9.03479 16.103L9.03252 16.0998L9.03132 16.0982L9.02419 16.0886L6.86219 13.3622L6.84252 13.3415L6.84199 13.341L6.83912 13.3378L6.82352 13.321C6.80926 13.3053 6.78739 13.281 6.75966 13.2494C6.70406 13.1859 6.62559 13.0934 6.53712 12.9805C6.35652 12.75 6.15019 12.455 6.00619 12.1602C5.85406 11.8488 5.56632 11.5492 5.12426 11.5269C4.74706 11.5078 4.45206 11.7076 4.27979 11.8615C4.18853 11.943 4.10186 12.0381 4.02226 12.1426C4.01206 12.0136 4.00206 11.8797 3.99173 11.7411L3.98846 11.6976C3.92306 10.8184 3.84393 9.75524 3.58573 8.90424C3.28339 7.90771 2.61089 7.35318 1.81995 7.33444ZM8.49445 16.4935L9.03132 16.0982C9.03125 16.0982 9.03119 16.0981 8.49445 16.4935ZM8.75032 20.0006C8.66359 19.2676 8.55545 18.3093 8.54339 17.9815C8.54312 17.979 8.54119 17.9605 8.53085 17.923C8.51945 17.8818 8.50132 17.83 8.47532 17.7682C8.42279 17.6433 8.34952 17.5042 8.26965 17.3678C8.19085 17.2333 8.11159 17.1117 8.05165 17.0234C8.02192 16.9794 7.99745 16.9445 7.98085 16.9211L7.96339 16.8968L5.85166 14.2338L5.83919 14.2203C5.81912 14.1983 5.79099 14.1671 5.75659 14.1278C5.68799 14.0495 5.59366 13.9382 5.48766 13.803C5.33852 13.6126 5.15826 13.3648 4.99372 13.0877L4.98946 13.0955C4.92912 13.2064 4.89599 13.3081 4.88573 13.3748C4.84939 13.6113 4.86819 13.7739 4.88672 13.8621C4.89612 13.907 4.90593 13.9346 4.90986 13.9449L4.91059 13.9468L6.13132 16.3719L4.99719 17.0644L4.98093 17.0422L4.93466 16.9785C4.89466 16.9234 4.83719 16.844 4.76686 16.7463C4.62626 16.5511 4.43406 16.2824 4.22779 15.9888C3.82313 15.4128 3.33939 14.706 3.10053 14.2824C2.92179 13.9654 2.83906 13.5458 2.78639 13.1668C2.73139 12.7706 2.69713 12.3108 2.66316 11.8548L2.66207 11.8402C2.59264 10.9081 2.52062 9.98617 2.30983 9.29131C2.21774 8.98771 2.09927 8.83504 2.0138 8.76111C1.93232 8.69057 1.85589 8.66897 1.78834 8.66737C1.60648 8.66311 1.48591 8.78964 1.47058 8.83457C1.46942 8.83884 1.46322 8.86164 1.4546 8.91091C1.44508 8.96537 1.43519 9.03691 1.42548 9.12624C1.40607 9.30491 1.38959 9.53391 1.37624 9.80184C1.34958 10.3366 1.33665 10.9992 1.3339 11.6701C1.32832 13.0293 1.3647 14.3512 1.4033 14.6952C1.45158 15.1254 1.71904 15.5844 2.15825 16.297L2.15999 16.2998C2.27363 16.4841 2.39555 16.6819 2.5162 16.8886C2.93793 17.611 3.39293 18.0961 3.89079 18.6241L3.90173 18.6357C4.27293 19.0293 4.67526 19.456 5.05533 20.0006H8.75032ZM5.20006 12.8312C5.20006 12.831 5.19759 12.8322 5.19259 12.8358C5.19753 12.8332 5.20006 12.8314 5.20006 12.8312ZM9.99998 22.6673V21.334H4.66666V22.6673H9.99998Z" fill="#33583B"/>
<path id="Vector_3" fill-rule="evenodd" clip-rule="evenodd" d="M23.7917 8.40209C23.5664 7.74089 22.8726 7.31609 22.1804 7.33249C21.3894 7.35122 20.7169 7.90576 20.4146 8.90229C20.1564 9.75329 20.0773 10.8164 20.0118 11.6956L20.0086 11.7392C19.9983 11.8778 19.9883 12.0117 19.9781 12.1406C19.8985 12.0362 19.8118 11.941 19.7206 11.8596C19.5483 11.7056 19.2533 11.5058 18.8761 11.525C18.434 11.5473 18.1463 11.8469 17.9942 12.1582C17.8501 12.453 17.6438 12.7481 17.4633 12.9785C17.3748 13.0914 17.2963 13.1839 17.2407 13.2474C17.213 13.2791 17.1911 13.3033 17.1768 13.319L17.1613 13.3359L17.1583 13.339L17.1578 13.3395L17.1382 13.3603L14.9762 16.0866L14.969 16.0963L14.9679 16.0979L14.9655 16.101L14.9581 16.1113C14.9519 16.1199 14.9432 16.1319 14.9324 16.1471C14.9109 16.1775 14.8809 16.2204 14.845 16.2732C14.7738 16.3783 14.6779 16.5253 14.5803 16.6919C14.4837 16.8567 14.3794 17.051 14.296 17.2492C14.2177 17.4353 14.1337 17.6801 14.1245 17.9306C14.1138 18.2219 13.9971 19.2447 13.9069 20.0019C13.2141 20.0499 12.667 20.6271 12.667 21.332V22.6653C12.667 23.4017 13.264 23.9987 14.0003 23.9987H19.3337C20.07 23.9987 20.667 23.4017 20.667 22.6653V21.332C20.667 20.9756 20.5271 20.6518 20.2993 20.4126C20.5433 20.1064 20.8012 19.8321 21.0796 19.5369L21.0908 19.5249C21.5862 18.9995 22.1331 18.4195 22.6356 17.5588C22.7476 17.3671 22.8618 17.1817 22.9771 16.9946L23.0194 16.926C23.3997 16.31 23.8368 15.602 23.922 14.8419C23.9708 14.4079 24.0052 13.0077 23.9998 11.6627C23.997 10.9816 23.9838 10.2966 23.9558 9.73349C23.9418 9.45242 23.9237 9.19495 23.9004 8.98022C23.879 8.78315 23.848 8.56716 23.7917 8.40209ZM15.5059 16.4915C14.9691 16.0961 14.9691 16.0962 14.969 16.0963L15.5059 16.4915ZM18.945 19.9987C19.3251 19.454 19.7274 19.0273 20.0986 18.6337L20.1095 18.6221C20.6074 18.0941 21.0624 17.609 21.4841 16.8866C21.6047 16.6801 21.7265 16.4825 21.8401 16.2982L21.842 16.295C22.2813 15.5825 22.5488 15.1234 22.597 14.6933C22.6356 14.3493 22.672 13.0273 22.6664 11.6682C22.6637 10.9972 22.6508 10.3346 22.6241 9.79989C22.6107 9.53195 22.5942 9.30295 22.5748 9.12429C22.5651 9.03495 22.5552 8.96342 22.5457 8.90895C22.5371 8.85969 22.5309 8.83689 22.5298 8.83262C22.5144 8.78769 22.3938 8.66115 22.212 8.66542C22.1444 8.66702 22.068 8.68862 21.9865 8.75915C21.901 8.83309 21.7826 8.98575 21.6905 9.28935C21.4797 9.98422 21.4077 10.9062 21.3382 11.8382L21.3372 11.8528C21.3032 12.3088 21.269 12.7687 21.2139 13.1648C21.1613 13.5439 21.0785 13.9635 20.8998 14.2805C20.661 14.7041 20.1772 15.4108 19.7725 15.9869C19.5662 16.2804 19.3741 16.5491 19.2335 16.7443C19.1632 16.842 19.1056 16.9214 19.0656 16.9765L19.0194 17.0402L19.0031 17.0625L17.869 16.3699L19.0897 13.9448L19.0905 13.9429C19.0944 13.9327 19.1042 13.905 19.1136 13.8601C19.1321 13.7719 19.1509 13.6093 19.1146 13.3728C19.1044 13.3061 19.0712 13.2044 19.0109 13.0935L19.0066 13.0857C18.8421 13.3629 18.6618 13.6107 18.5127 13.801C18.4067 13.9362 18.3123 14.0475 18.2437 14.1259C18.2094 14.1651 18.1813 14.1963 18.1611 14.2183L18.1487 14.2319L16.0369 16.8948L16.0195 16.9191C16.0029 16.9425 15.9784 16.9775 15.9487 17.0214C15.8887 17.1097 15.8095 17.2313 15.7307 17.3659C15.6509 17.5022 15.5775 17.6413 15.5251 17.7662C15.499 17.8281 15.4809 17.8799 15.4695 17.921C15.4591 17.9585 15.4573 17.9771 15.457 17.9795C15.4449 18.3073 15.3367 19.2656 15.25 19.9987H18.945ZM18.8003 12.8293C18.8003 12.829 18.8027 12.8303 18.8077 12.8338C18.8028 12.8313 18.8003 12.8295 18.8003 12.8293ZM14.0003 22.6653V21.332H19.3337V22.6653H14.0003Z" fill="#33583B"/>
</g>
</g>
</svg>
