<svg width="27" height="27" viewBox="0 0 27 27" fill="none" xmlns="http://www.w3.org/2000/svg">
<path d="M18.7874 3.86818C18.7874 3.72163 18.7291 3.58109 18.6255 3.47746C18.5219 3.37383 18.3813 3.31562 18.2348 3.31562H15.4719C14.0807 3.24631 12.7186 3.73048 11.6832 4.66231C10.6479 5.59415 10.0234 6.89791 9.94627 8.28873V11.2726H7.18343C7.03688 11.2726 6.89633 11.3308 6.7927 11.4344C6.68908 11.5381 6.63086 11.6786 6.63086 11.8252V14.6985C6.63086 14.8451 6.68908 14.9856 6.7927 15.0892C6.89633 15.1929 7.03688 15.2511 7.18343 15.2511H9.94627V22.6555C9.94627 22.802 10.0045 22.9426 10.1081 23.0462C10.2117 23.1499 10.3523 23.2081 10.4988 23.2081H13.8142C13.9608 23.2081 14.1013 23.1499 14.205 23.0462C14.3086 22.9426 14.3668 22.802 14.3668 22.6555V15.2511H17.2623C17.3851 15.2529 17.5051 15.2136 17.6032 15.1395C17.7013 15.0655 17.7718 14.9609 17.8038 14.8422L18.5995 11.9688C18.6215 11.8872 18.6244 11.8016 18.6081 11.7186C18.5918 11.6357 18.5567 11.5575 18.5055 11.4903C18.4542 11.423 18.3882 11.3684 18.3125 11.3307C18.2369 11.2929 18.1536 11.2731 18.069 11.2726H14.3668V8.28873C14.3943 8.01518 14.5228 7.7617 14.7271 7.57779C14.9315 7.39387 15.197 7.29273 15.4719 7.29411H18.2348C18.3813 7.29411 18.5219 7.23589 18.6255 7.13226C18.7291 7.02864 18.7874 6.88809 18.7874 6.74154V3.86818Z" fill="#231F20"/>
</svg>
