<svg width="19" height="19" viewBox="0 0 19 19" fill="none" xmlns="http://www.w3.org/2000/svg">
<path d="M17.8665 7.51481H17.1399V7.47602H9.021V11.214H14.1192C13.3754 13.39 11.3768 14.952 9.021 14.952C6.03189 14.952 3.6084 12.4415 3.6084 9.34503C3.6084 6.24855 6.03189 3.73801 9.021 3.73801C10.4008 3.73801 11.656 4.27722 12.6118 5.15799L15.1634 2.51475C13.5522 0.959267 11.3971 0 9.021 0C4.03915 0 0 4.18424 0 9.34503C0 14.5058 4.03915 18.6901 9.021 18.6901C14.0028 18.6901 18.042 14.5058 18.042 9.34503C18.042 8.71845 17.9797 8.10681 17.8665 7.51481Z" fill="#FFC107"/>
<path d="M1.04004 4.99539L4.00389 7.24707C4.80585 5.19023 6.74807 3.73801 9.02091 3.73801C10.4007 3.73801 11.6559 4.27722 12.6117 5.15799L15.1633 2.51475C13.5522 0.959267 11.397 0 9.02091 0C5.55595 0 2.55106 2.02647 1.04004 4.99539Z" fill="#FF3D00"/>
<path d="M9.02118 18.6901C11.3513 18.6901 13.4685 17.7663 15.0693 16.2641L12.2773 13.8166C11.3716 14.5273 10.2458 14.952 9.02118 14.952C6.67482 14.952 4.68253 13.4022 3.93198 11.2393L0.990234 13.5872C2.48321 16.6136 5.51517 18.6901 9.02118 18.6901Z" fill="#4CAF50"/>
<path d="M17.8665 7.51486H17.1399V7.47607H9.021V11.2141H14.1192C13.762 12.2593 13.1129 13.1607 12.2758 13.8171C12.2762 13.8167 12.2767 13.8167 12.2771 13.8162L15.0691 16.2637C14.8716 16.4496 18.042 14.0176 18.042 9.34508C18.042 8.7185 17.9797 8.10686 17.8665 7.51486Z" fill="#1976D2"/>
</svg>
