<svg width="24" height="24" viewBox="0 0 24 24" fill="none" xmlns="http://www.w3.org/2000/svg">
<g id="&#240;&#159;&#166;&#134; emoji &#34;hammer and wrench&#34;">
<path id="Vector" d="M23.7145 20.6164C22.655 19.8001 19.8338 17.5453 17.2063 14.8358C15.4599 13.0338 14.7171 11.2298 13.3931 9.86425C12.194 8.62748 11.1032 7.90669 11.1032 7.90669L10.796 8.22349L8.72083 6.08353L9.52242 5.25674C9.65761 5.11755 9.65761 4.89195 9.52242 4.75195L9.35682 4.58116C9.35762 4.58036 11.716 1.40682 14.6979 2.2844C15.0443 2.3872 15.3531 2.56199 15.4407 2.4728C15.5599 2.3504 15.1059 1.88001 14.8399 1.60801C11.0676 -2.25191 6.90647 2.0496 6.90447 2.0516L6.75767 1.90001C6.62247 1.76081 6.40368 1.76081 6.26888 1.90001L2.57335 5.71113C2.43815 5.85073 2.43815 6.07673 2.57335 6.21592C2.57335 6.21592 3.02574 7.00751 1.83936 7.14991C1.36177 7.2079 1.06258 7.3155 0.892983 7.4575C0.872983 7.4743 0.101398 8.26108 0.101398 8.26108C-0.0337994 8.40028 -0.0337994 8.62668 0.101398 8.76588L2.86694 11.6186C3.00134 11.7578 3.22094 11.7578 3.35614 11.6186C3.35614 11.6186 4.11852 10.8226 4.13492 10.8018C4.27212 10.6266 4.37692 10.3186 4.43211 9.82586C4.57131 8.60188 5.3377 9.06907 5.3377 9.06907C5.47289 9.20867 5.69249 9.20867 5.82729 9.06907L6.62887 8.24229L8.70323 10.3818L8.39604 10.699C8.39604 10.699 9.09522 11.8242 10.2944 13.061C11.618 14.4262 13.3675 15.1922 15.1143 16.9941C17.7411 19.7037 19.927 22.6128 20.7198 23.706C21.019 24.1176 21.0666 24.0796 21.4318 23.7024L22.5714 22.5272L23.7101 21.3524C24.0761 20.974 24.1137 20.9252 23.7145 20.6164Z" fill="#33583B"/>
<path id="Vector_2" d="M12.8027 8.27521C13.1195 8.56201 13.4567 8.8828 13.8015 9.23839C14.4383 9.89518 14.9711 10.63 15.5051 11.4144L19.0818 7.83722C20.3862 8.15442 21.8178 7.80282 22.8357 6.78644C23.8533 5.76846 24.2029 4.33649 23.8873 3.03331L20.641 6.27965L18.337 5.66246L17.7194 3.35731L20.965 0.11297C19.6618 -0.204224 18.2298 0.14657 17.2127 1.16495C16.1947 2.18213 15.8447 3.6137 16.1603 4.91688L12.8027 8.27521Z" fill="#33583B"/>
<path id="Vector_3" d="M9.7956 13.3706C9.42681 12.9906 9.09642 12.6194 8.80402 12.2734L4.9173 16.1606C3.61372 15.8442 2.18175 16.1942 1.16497 17.2121C-0.388198 18.7641 -0.387798 21.2817 1.16497 22.834C2.71734 24.3872 5.23409 24.3872 6.78646 22.834C7.80444 21.8161 8.15444 20.3845 7.83884 19.0805L11.8404 15.0794C11.1044 14.5442 10.4136 14.0078 9.7956 13.3706ZM4.59331 22.3272L2.28895 21.7097L1.67176 19.4049L3.35893 17.7189L5.66288 18.3353L6.28007 20.6405L4.59331 22.3272Z" fill="#33583B"/>
</g>
</svg>
