<svg xmlns="http://www.w3.org/2000/svg" width="25" height="20" viewBox="0 0 25 20" fill="none">
  <path d="M18.8787 7.42652H12.9988V9.59283C12.9988 11.1286 11.7493 12.3781 10.2135 12.3781C8.67774 12.3781 7.42824 11.1286 7.42824 9.59283V4.88884L4.91764 6.39752C4.17103 6.84239 3.71456 7.65089 3.71456 8.51741V10.3472L0.619829 12.1344C0.0279612 12.4748 -0.177065 13.233 0.167224 13.8249L3.26196 19.1865C3.60238 19.7784 4.36059 19.9795 4.95245 19.6391L8.95239 17.3297H14.2366C15.6022 17.3297 16.7124 16.2194 16.7124 14.8539H17.3314C18.0161 14.8539 18.5693 14.3007 18.5693 13.616V11.1402H18.8787C19.3932 11.1402 19.8072 10.7263 19.8072 10.2118V8.35494C19.8072 7.84044 19.3932 7.42652 18.8787 7.42652ZM24.5924 5.97973L21.4977 0.61811C21.1572 0.0262421 20.399 -0.174915 19.8072 0.165505L15.8072 2.47495H11.8537C11.3895 2.47495 10.9369 2.60647 10.5423 2.85018L9.24639 3.65868C8.88276 3.88305 8.66613 4.2815 8.66613 4.70702V9.59283C8.66613 10.4478 9.35858 11.1402 10.2135 11.1402C11.0684 11.1402 11.7609 10.4478 11.7609 9.59283V6.18863H18.8787C20.0741 6.18863 21.0451 7.1596 21.0451 8.35494V9.45744L24.1398 7.67023C24.7317 7.32594 24.9328 6.5716 24.5924 5.97973Z" fill="#33583B"/>
</svg>