<svg xmlns="http://www.w3.org/2000/svg" width="22" height="22" viewBox="0 0 22 22" fill="none">
  <path d="M5.7267 4.67435C5.33204 3.97507 4.45277 3.73249 3.76286 4.13255C3.07294 4.53261 2.83361 5.42377 3.22831 6.12305C3.29157 6.23517 3.36925 6.33824 3.45929 6.42958L8.15968 12.6675L9.25538 14.067L6.03932 9.799C5.64466 9.09973 4.76538 8.85715 4.07547 9.2572C3.38556 9.65726 3.14623 10.5484 3.54093 11.2477C3.60418 11.3598 3.68187 11.4629 3.7719 11.5543L6.98796 15.8222L9.54378 19.0854C11.772 21.6769 15.4597 21.5354 18.0159 19.2775C19.485 17.9686 20.4298 16.1592 20.6714 14.1919C20.8287 12.4433 21.0004 7.87084 21.0004 7.87084C20.9259 6.79642 19.7225 6.00217 19.5674 6.55706L17.5727 10.588L16.2009 8.84368L10.7128 1.7346C10.3181 1.03533 9.43887 0.792751 8.74896 1.19281C8.05904 1.59287 7.81971 2.48403 8.21442 3.1833C8.27767 3.29542 8.35536 3.39849 8.44539 3.48983L10.1771 5.78802L12.7952 9.2912L7.32585 1.98735C6.93119 1.28807 6.05191 1.04549 5.362 1.44555C4.67209 1.84561 4.43276 2.73677 4.82742 3.43605C4.89067 3.54817 4.96836 3.65124 5.05839 3.74262L11.0383 11.5977" stroke="black" stroke-width="1.5" stroke-linecap="round" stroke-linejoin="round"/>
  <path d="M2.87988 14.4375C2.87988 15.4977 3.59193 16.3555 4.47185 16.3555" stroke="black" stroke-miterlimit="10" stroke-linecap="round" stroke-linejoin="round"/>
  <path d="M1 14.2578C1 16.5695 2.55264 18.4402 4.47141 18.4402" stroke="black" stroke-miterlimit="10" stroke-linecap="round" stroke-linejoin="round"/>
  <path d="M16.5695 5.49612C16.5695 4.43595 15.8575 3.57812 14.9775 3.57812" stroke="black" stroke-miterlimit="10" stroke-linecap="round" stroke-linejoin="round"/>
  <path d="M18.4489 5.67848C18.4489 3.36675 16.8963 1.49609 14.9775 1.49609" stroke="black" stroke-miterlimit="10" stroke-linecap="round" stroke-linejoin="round"/>
</svg>