<svg width="19" height="19" viewBox="0 0 19 19" fill="none" xmlns="http://www.w3.org/2000/svg">
<g id="bell">
<path id="Vector" d="M14.25 6.33398C14.25 5.07421 13.7496 3.86602 12.8588 2.97523C11.968 2.08443 10.7598 1.58398 9.5 1.58398C8.24022 1.58398 7.03204 2.08443 6.14124 2.97523C5.25045 3.86602 4.75 5.07421 4.75 6.33398C4.75 11.8757 2.375 13.459 2.375 13.459H16.625C16.625 13.459 14.25 11.8757 14.25 6.33398Z" stroke="#8AAF92" stroke-width="2" stroke-linecap="round" stroke-linejoin="round"/>
<path id="Vector_2" d="M10.8695 16.625C10.7304 16.8649 10.5306 17.0641 10.2902 17.2025C10.0499 17.341 9.77734 17.4139 9.49995 17.4139C9.22257 17.4139 8.95005 17.341 8.70969 17.2025C8.46933 17.0641 8.26955 16.8649 8.13037 16.625" stroke="#8AAF92" stroke-width="2" stroke-linecap="round" stroke-linejoin="round"/>
</g>
</svg>
