<svg width="19" height="19" viewBox="0 0 19 19" fill="none" xmlns="http://www.w3.org/2000/svg">
<g clip-path="url(#clip0_174_2475)">
<path d="M9.5 11.875C10.8117 11.875 11.875 10.8117 11.875 9.5C11.875 8.18832 10.8117 7.125 9.5 7.125C8.18832 7.125 7.125 8.18832 7.125 9.5C7.125 10.8117 8.18832 11.875 9.5 11.875Z" stroke="#8AAF92" stroke-width="2" stroke-linecap="round" stroke-linejoin="round"/>
<path d="M15.3582 11.8743C15.2528 12.1131 15.2214 12.378 15.2679 12.6348C15.3145 12.8916 15.4369 13.1286 15.6194 13.3152L15.6669 13.3627C15.8141 13.5097 15.9309 13.6844 16.0106 13.8766C16.0903 14.0688 16.1313 14.2748 16.1313 14.4829C16.1313 14.691 16.0903 14.897 16.0106 15.0892C15.9309 15.2814 15.8141 15.456 15.6669 15.6031C15.5199 15.7503 15.3452 15.8671 15.153 15.9468C14.9608 16.0265 14.7548 16.0675 14.5467 16.0675C14.3386 16.0675 14.1326 16.0265 13.9404 15.9468C13.7482 15.8671 13.5736 15.7503 13.4265 15.6031L13.379 15.5556C13.1924 15.3731 12.9554 15.2507 12.6986 15.2041C12.4418 15.1575 12.1769 15.189 11.9382 15.2943C11.704 15.3947 11.5043 15.5613 11.3637 15.7737C11.223 15.9861 11.1475 16.235 11.1465 16.4898V16.6243C11.1465 17.0443 10.9797 17.447 10.6828 17.7439C10.3858 18.0409 9.9831 18.2077 9.56317 18.2077C9.14324 18.2077 8.74052 18.0409 8.44358 17.7439C8.14665 17.447 7.97984 17.0443 7.97984 16.6243V16.5531C7.97371 16.2911 7.88889 16.0369 7.73641 15.8237C7.58393 15.6105 7.37084 15.4482 7.12484 15.3577C6.88606 15.2523 6.62118 15.2209 6.36437 15.2674C6.10756 15.314 5.87058 15.4364 5.684 15.6189L5.6365 15.6664C5.48945 15.8136 5.31483 15.9304 5.12262 16.0101C4.9304 16.0898 4.72437 16.1308 4.5163 16.1308C4.30822 16.1308 4.10219 16.0898 3.90997 16.0101C3.71776 15.9304 3.54314 15.8136 3.39609 15.6664C3.24887 15.5194 3.13209 15.3448 3.05241 15.1525C2.97273 14.9603 2.93172 14.7543 2.93172 14.5462C2.93172 14.3381 2.97273 14.1321 3.05241 13.9399C3.13209 13.7477 3.24887 13.5731 3.39609 13.426L3.44359 13.3785C3.6261 13.1919 3.74853 12.955 3.79509 12.6981C3.84166 12.4413 3.81022 12.1765 3.70484 11.9377C3.60448 11.7035 3.43785 11.5038 3.22546 11.3632C3.01306 11.2225 2.76417 11.147 2.50942 11.146H2.37484C1.95491 11.146 1.55218 10.9792 1.25525 10.6823C0.958319 10.3853 0.791504 9.98261 0.791504 9.56268C0.791504 9.14276 0.958319 8.74003 1.25525 8.4431C1.55218 8.14616 1.95491 7.97935 2.37484 7.97935H2.44609C2.70812 7.97322 2.96226 7.8884 3.17545 7.73592C3.38864 7.58344 3.55103 7.37035 3.6415 7.12435C3.74689 6.88557 3.77832 6.6207 3.73176 6.36388C3.68519 6.10707 3.56276 5.87009 3.38025 5.68352L3.33275 5.63602C3.18554 5.48897 3.06876 5.31434 2.98908 5.12213C2.9094 4.92992 2.86838 4.72388 2.86838 4.51581C2.86838 4.30773 2.9094 4.1017 2.98908 3.90948C3.06876 3.71727 3.18554 3.54265 3.33275 3.3956C3.4798 3.24839 3.65443 3.1316 3.84664 3.05192C4.03885 2.97224 4.24489 2.93123 4.45296 2.93123C4.66104 2.93123 4.86707 2.97224 5.05928 3.05192C5.2515 3.1316 5.42612 3.24839 5.57317 3.3956L5.62067 3.4431C5.80725 3.62561 6.04422 3.74804 6.30104 3.7946C6.55785 3.84117 6.82272 3.80973 7.0615 3.70435H7.12484C7.35899 3.60399 7.55868 3.43736 7.69934 3.22497C7.84 3.01257 7.91549 2.76368 7.9165 2.50893V2.37435C7.9165 1.95442 8.08332 1.5517 8.38025 1.25476C8.67718 0.957831 9.07991 0.791016 9.49984 0.791016C9.91976 0.791016 10.3225 0.957831 10.6194 1.25476C10.9164 1.5517 11.0832 1.95442 11.0832 2.37435V2.4456C11.0842 2.70035 11.1597 2.94924 11.3003 3.16163C11.441 3.37403 11.6407 3.54066 11.8748 3.64102C12.1136 3.7464 12.3785 3.77783 12.6353 3.73127C12.8921 3.6847 13.1291 3.56227 13.3157 3.37977L13.3632 3.33227C13.5102 3.18505 13.6848 3.06827 13.8771 2.98859C14.0693 2.90891 14.2753 2.86789 14.4834 2.86789C14.6915 2.86789 14.8975 2.90891 15.0897 2.98859C15.2819 3.06827 15.4565 3.18505 15.6036 3.33227C15.7508 3.47931 15.8676 3.65394 15.9473 3.84615C16.0269 4.03837 16.068 4.2444 16.068 4.45247C16.068 4.66055 16.0269 4.86658 15.9473 5.0588C15.8676 5.25101 15.7508 5.42563 15.6036 5.57268L15.5561 5.62018C15.3736 5.80676 15.2511 6.04374 15.2046 6.30055C15.158 6.55736 15.1895 6.82224 15.2948 7.06102V7.12435C15.3952 7.3585 15.5618 7.5582 15.7742 7.69886C15.9866 7.83952 16.2355 7.915 16.4903 7.91602H16.6248C17.0448 7.91602 17.4475 8.08283 17.7444 8.37976C18.0414 8.6767 18.2082 9.07942 18.2082 9.49935C18.2082 9.91927 18.0414 10.322 17.7444 10.6189C17.4475 10.9159 17.0448 11.0827 16.6248 11.0827H16.5536C16.2988 11.0837 16.0499 11.1592 15.8376 11.2998C15.6252 11.4405 15.4585 11.6402 15.3582 11.8743Z" stroke="#8AAF92" stroke-width="2" stroke-linecap="round" stroke-linejoin="round"/>
</g>
<defs>
<clipPath id="clip0_174_2475">
<rect width="19" height="19" fill="white"/>
</clipPath>
</defs>
</svg>
