<svg width="19" height="19" viewBox="0 0 19 19" fill="none" xmlns="http://www.w3.org/2000/svg">
<mask id="path-1-inside-1_174_2406" fill="white">
<path d="M0 0.999999C0 0.447714 0.447715 0 1 0H18C18.5523 0 19 0.447715 19 1V19H0V0.999999Z"/>
</mask>
<path d="M0 0.999999C0 0.447714 0.447715 0 1 0H18C18.5523 0 19 0.447715 19 1V19H0V0.999999Z" stroke="#8AAF92" stroke-width="4" mask="url(#path-1-inside-1_174_2406)"/>
<mask id="path-2-inside-2_174_2406" fill="white">
<rect x="6.82031" y="13.0176" width="5.35897" height="5.98148" rx="1"/>
</mask>
<rect x="6.82031" y="13.0176" width="5.35897" height="5.98148" rx="1" stroke="#8AAF92" stroke-width="4" mask="url(#path-2-inside-2_174_2406)"/>
<rect x="4.39746" y="4.37109" width="2.89744" height="1.81481" rx="0.5" stroke="#8AAF92"/>
<rect x="4.39746" y="8.5918" width="2.89744" height="1.81481" rx="0.5" stroke="#8AAF92"/>
<rect x="11.7051" y="8.5918" width="2.89744" height="1.81481" rx="0.5" stroke="#8AAF92"/>
<rect x="11.7051" y="4.37109" width="2.89744" height="1.81481" rx="0.5" stroke="#8AAF92"/>
</svg>
