<svg width="19" height="19" viewBox="0 0 19 19" fill="none" xmlns="http://www.w3.org/2000/svg">
<g id="briefcase">
<path id="Vector" d="M15.8335 5.54102H3.16683C2.29238 5.54102 1.5835 6.2499 1.5835 7.12435V15.041C1.5835 15.9155 2.29238 16.6243 3.16683 16.6243H15.8335C16.7079 16.6243 17.4168 15.9155 17.4168 15.041V7.12435C17.4168 6.2499 16.7079 5.54102 15.8335 5.54102Z" stroke="#8AAF92" stroke-width="2" stroke-linecap="round" stroke-linejoin="round"/>
<path id="Vector_2" d="M12.6668 16.625V3.95833C12.6668 3.53841 12.5 3.13568 12.2031 2.83875C11.9061 2.54181 11.5034 2.375 11.0835 2.375H7.91683C7.4969 2.375 7.09418 2.54181 6.79724 2.83875C6.50031 3.13568 6.3335 3.53841 6.3335 3.95833V16.625" stroke="#8AAF92" stroke-width="2" stroke-linecap="round" stroke-linejoin="round"/>
</g>
</svg>
