<svg width="19" height="19" viewBox="0 0 19 19" fill="none" xmlns="http://www.w3.org/2000/svg">
<g id="file-text">
<path id="Vector" d="M11.0832 1.58398H4.74984C4.32991 1.58398 3.92718 1.7508 3.63025 2.04773C3.33332 2.34466 3.1665 2.74739 3.1665 3.16732V15.834C3.1665 16.2539 3.33332 16.6566 3.63025 16.9536C3.92718 17.2505 4.32991 17.4173 4.74984 17.4173H14.2498C14.6698 17.4173 15.0725 17.2505 15.3694 16.9536C15.6664 16.6566 15.8332 16.2539 15.8332 15.834V6.33398L11.0832 1.58398Z" stroke="#8AAF92" stroke-width="2" stroke-linecap="round" stroke-linejoin="round"/>
<path id="Vector_2" d="M11.0835 1.58398V6.33398H15.8335" stroke="#8AAF92" stroke-linecap="round" stroke-linejoin="round"/>
<path id="Vector_3" d="M12.6668 10.291H6.3335" stroke="#8AAF92" stroke-linecap="round" stroke-linejoin="round"/>
<path id="Vector_4" d="M12.6668 13.459H6.3335" stroke="#8AAF92" stroke-linecap="round" stroke-linejoin="round"/>
<path id="Vector_5" d="M7.91683 7.125H7.12516H6.3335" stroke="#8AAF92" stroke-linecap="round" stroke-linejoin="round"/>
</g>
</svg>
