<svg width="19" height="19" viewBox="0 0 19 19" fill="none" xmlns="http://www.w3.org/2000/svg">
<g id="shopping-bag">
<path id="Vector" d="M4.75 1.58398L2.375 4.75065V15.834C2.375 16.2539 2.54181 16.6566 2.83875 16.9536C3.13568 17.2505 3.53841 17.4173 3.95833 17.4173H15.0417C15.4616 17.4173 15.8643 17.2505 16.1613 16.9536C16.4582 16.6566 16.625 16.2539 16.625 15.834V4.75065L14.25 1.58398H4.75Z" stroke="#8AAF92" stroke-width="2" stroke-linecap="round" stroke-linejoin="round"/>
<path id="Vector_2" d="M2.375 4.75H16.625" stroke="#8AAF92" stroke-width="2" stroke-linecap="round" stroke-linejoin="round"/>
<path id="Vector_3" d="M12.6668 7.91602C12.6668 8.75587 12.3332 9.56132 11.7393 10.1552C11.1455 10.7491 10.34 11.0827 9.50016 11.0827C8.66031 11.0827 7.85486 10.7491 7.26099 10.1552C6.66713 9.56132 6.3335 8.75587 6.3335 7.91602" stroke="#8AAF92" stroke-width="2" stroke-linecap="round" stroke-linejoin="round"/>
</g>
</svg>
