<svg width="19" height="19" viewBox="0 0 19 19" fill="none" xmlns="http://www.w3.org/2000/svg">
<g id="shopping-cart" clip-path="url(#clip0_174_2456)">
<path id="Vector" d="M7.12516 17.4173C7.56239 17.4173 7.91683 17.0629 7.91683 16.6257C7.91683 16.1884 7.56239 15.834 7.12516 15.834C6.68794 15.834 6.3335 16.1884 6.3335 16.6257C6.3335 17.0629 6.68794 17.4173 7.12516 17.4173Z" stroke="#8AAF92" stroke-width="2" stroke-linecap="round" stroke-linejoin="round"/>
<path id="Vector_2" d="M15.8332 17.4173C16.2704 17.4173 16.6248 17.0629 16.6248 16.6257C16.6248 16.1884 16.2704 15.834 15.8332 15.834C15.3959 15.834 15.0415 16.1884 15.0415 16.6257C15.0415 17.0629 15.3959 17.4173 15.8332 17.4173Z" stroke="#8AAF92" stroke-width="2" stroke-linecap="round" stroke-linejoin="round"/>
<path id="Vector_3" d="M0.791504 0.791016H3.95817L6.07984 11.3914C6.15223 11.7559 6.35052 12.0833 6.63998 12.3163C6.92944 12.5494 7.29164 12.6731 7.66317 12.666H15.3582C15.7297 12.6731 16.0919 12.5494 16.3814 12.3163C16.6708 12.0833 16.8691 11.7559 16.9415 11.3914L18.2082 4.74935H4.74984" stroke="#8AAF92" stroke-width="2" stroke-linecap="round" stroke-linejoin="round"/>
</g>
<defs>
<clipPath id="clip0_174_2456">
<rect width="19" height="19" fill="white"/>
</clipPath>
</defs>
</svg>
