<svg xmlns="http://www.w3.org/2000/svg" width="34" height="50" viewBox="0 0 34 50" fill="none">
  <path d="M22.682 43.5318L6.89095 42.9873C6.81843 42.9875 6.7485 42.9605 6.69514 42.9116C6.64177 42.8628 6.6089 42.7956 6.6031 42.7237C6.57432 42.3368 5.93531 33.2149 6.6031 30.6614C7.17879 28.4719 8.50862 26.3827 8.92312 25.7637C8.45105 25.1906 7.01472 23.2103 7.17591 21.1784C7.3371 19.1465 9.19081 17.7136 10.2789 16.8596C10.4832 16.6991 10.6646 16.573 10.8085 16.4355C11.695 15.6703 19.8496 15.0427 23.1857 15.6818C24.1471 15.8652 24.6883 16.1317 24.8898 16.5186C25.7533 18.198 28.744 26.122 27.843 29.2744C27.4285 30.7216 26.4038 32.4526 25.4021 34.1262C24.2738 36.0205 23.0994 37.9779 22.967 39.3449C22.7022 41.904 22.967 43.1621 22.967 43.1765C22.9756 43.2186 22.9746 43.2621 22.9641 43.3038C22.9536 43.3455 22.9337 43.3843 22.9061 43.4173C22.8784 43.4503 22.8437 43.4767 22.8044 43.4946C22.7651 43.5124 22.7223 43.5212 22.6791 43.5204L22.682 43.5318ZM7.16152 42.4256L22.3452 42.9472C22.231 41.7328 22.2484 40.5097 22.397 39.299C22.5496 37.8059 23.6952 35.8829 24.9099 33.8539C25.8857 32.2118 26.896 30.5124 27.2904 29.1368C28.1366 26.185 25.2035 18.3814 24.3832 16.8138C24.3313 16.7163 24.0953 16.4727 23.0821 16.275C19.628 15.6101 11.8246 16.3581 11.1971 16.8997C11.0474 17.0287 10.8574 17.1863 10.6444 17.3411C9.55349 18.2008 7.90415 19.4761 7.76599 21.2558C7.59616 23.3736 9.49304 25.5545 9.51895 25.5774C9.56162 25.6261 9.58654 25.6876 9.58968 25.7521C9.59281 25.8166 9.57398 25.8803 9.53622 25.9328C9.51895 25.9557 7.82931 28.3688 7.17591 30.8276C6.58007 33.04 7.06077 40.9067 7.16152 42.4256Z" fill="#093F68"/>
  <path d="M31.7001 0.289429H2.2998C1.18859 0.289429 0.287781 1.1863 0.287781 2.29264V18.0174C0.287781 19.1237 1.18859 20.0206 2.2998 20.0206H31.7001C32.8113 20.0206 33.7121 19.1237 33.7121 18.0174V2.29264C33.7121 1.1863 32.8113 0.289429 31.7001 0.289429Z" fill="#D9D9D9"/>
  <path d="M31.6973 20.3072H2.30274C1.69202 20.3072 1.1063 20.0657 0.674456 19.6357C0.242608 19.2058 0 18.6226 0 18.0146V2.29266C0 1.68461 0.242608 1.10146 0.674456 0.671504C1.1063 0.241548 1.69202 0 2.30274 0H31.6973C32.308 0 32.8937 0.241548 33.3255 0.671504C33.7574 1.10146 34 1.68461 34 2.29266V18.0146C34 18.6226 33.7574 19.2058 33.3255 19.6357C32.8937 20.0657 32.308 20.3072 31.6973 20.3072ZM2.30274 0.576031C1.8447 0.576031 1.40541 0.757191 1.08153 1.07966C0.757642 1.40213 0.575686 1.83949 0.575686 2.29552V18.0174C0.575686 18.4735 0.757642 18.9108 1.08153 19.2333C1.40541 19.5558 1.8447 19.7369 2.30274 19.7369H31.6973C32.1553 19.7369 32.5946 19.5558 32.9185 19.2333C33.2424 18.9108 33.4243 18.4735 33.4243 18.0174V2.29266C33.4243 1.83662 33.2424 1.39926 32.9185 1.07679C32.5946 0.754325 32.1553 0.573164 31.6973 0.573164L2.30274 0.576031Z" fill="#093F68"/>
  <path d="M23.511 8.85252C24.8098 8.85252 25.8627 7.80425 25.8627 6.51115C25.8627 5.21804 24.8098 4.16977 23.511 4.16977C22.2122 4.16977 21.1594 5.21804 21.1594 6.51115C21.1594 7.80425 22.2122 8.85252 23.511 8.85252Z" fill="#FFBC0E"/>
  <path d="M23.511 9.13626C22.9886 9.13626 22.4779 8.98191 22.0436 8.69276C21.6094 8.40362 21.2711 7.99268 21.0716 7.51198C20.872 7.03128 20.8203 6.50245 20.9228 5.99244C21.0254 5.48243 21.2776 5.01419 21.6476 4.64701C22.0176 4.27983 22.4888 4.03022 23.0013 3.92979C23.5139 3.82937 24.0449 3.88264 24.5271 4.08286C25.0092 4.28308 25.4209 4.62125 25.7099 5.05455C25.9988 5.48784 26.1522 5.99677 26.1505 6.5169C26.1482 7.21238 25.8691 7.87861 25.3743 8.36959C24.8796 8.86057 24.2095 9.13626 23.511 9.13626ZM23.511 4.45637C23.103 4.45637 22.7042 4.57674 22.365 4.80227C22.0257 5.0278 21.7612 5.34838 21.6048 5.72351C21.4484 6.09864 21.4072 6.5115 21.4864 6.90993C21.5655 7.30837 21.7615 7.67451 22.0496 7.9621C22.3377 8.2497 22.7049 8.44584 23.1048 8.52578C23.5048 8.60571 23.9196 8.56583 24.2968 8.41119C24.674 8.25654 24.9967 7.99407 25.2242 7.65691C25.4517 7.31976 25.5737 6.92305 25.5748 6.5169C25.5756 6.24658 25.5227 5.97876 25.4194 5.7288C25.316 5.47884 25.1641 5.25165 24.9724 5.06023C24.7806 4.86882 24.5529 4.71695 24.3021 4.61333C24.0513 4.50971 23.7825 4.45637 23.511 4.45637Z" fill="#093F68"/>
  <path d="M27.1839 8.85252C28.4827 8.85252 29.5356 7.80425 29.5356 6.51115C29.5356 5.21804 28.4827 4.16977 27.1839 4.16977C25.8851 4.16977 24.8322 5.21804 24.8322 6.51115C24.8322 7.80425 25.8851 8.85252 27.1839 8.85252Z" fill="#F56132"/>
  <path d="M27.1838 9.13626C26.6613 9.13682 26.1503 8.98296 25.7157 8.69416C25.2811 8.40536 24.9423 7.99461 24.7424 7.51397C24.5424 7.03332 24.4902 6.50439 24.5924 5.9942C24.6947 5.484 24.9467 5.01549 25.3166 4.64802C25.6865 4.28055 26.1576 4.03066 26.6703 3.93C27.1829 3.82934 27.7141 3.88244 28.1964 4.08258C28.6787 4.28272 29.0905 4.62089 29.3796 5.05425C29.6688 5.4876 29.8222 5.99665 29.8205 6.5169C29.8174 7.21165 29.5385 7.87701 29.0445 8.36774C28.5505 8.85848 27.8816 9.13475 27.1838 9.13626ZM27.1838 4.45637C26.7758 4.4558 26.3767 4.57569 26.037 4.80088C25.6974 5.02606 25.4324 5.34644 25.2756 5.72152C25.1188 6.0966 25.0772 6.50955 25.156 6.90817C25.2349 7.30679 25.4306 7.6732 25.7186 7.96108C26.0065 8.24896 26.3737 8.4454 26.7737 8.52556C27.1738 8.60572 27.5887 8.56602 27.9661 8.41146C28.3435 8.2569 28.6664 7.99443 28.894 7.65721C29.1216 7.31999 29.2436 6.92317 29.2448 6.5169C29.2455 5.97167 29.0289 5.44842 28.6425 5.06208C28.2561 4.67574 27.7315 4.45789 27.1838 4.45637Z" fill="#093F68"/>
  <path d="M7.35437 9.12797H5.1092C4.70864 9.12721 4.32471 8.96845 4.04147 8.68646C3.75824 8.40446 3.59878 8.02221 3.59802 7.62341V5.38807C3.59878 4.98927 3.75824 4.60702 4.04147 4.32503C4.32471 4.04303 4.70864 3.88427 5.1092 3.88351H7.35437C7.75466 3.88427 8.1383 4.04312 8.42107 4.3252C8.70385 4.60728 8.86267 4.98953 8.86267 5.38807V7.62341C8.86267 8.02195 8.70385 8.40421 8.42107 8.68628C8.1383 8.96836 7.75466 9.12721 7.35437 9.12797ZM5.1092 4.45668C4.86132 4.45743 4.62382 4.55581 4.44855 4.73031C4.27327 4.90482 4.17447 5.14128 4.17371 5.38807V7.62341C4.17447 7.8702 4.27327 8.10666 4.44855 8.28117C4.62382 8.45568 4.86132 8.55405 5.1092 8.5548H7.35437C7.60198 8.55405 7.83919 8.45558 8.014 8.281C8.18882 8.10641 8.28698 7.86994 8.28698 7.62341V5.38807C8.28698 5.14155 8.18882 4.90508 8.014 4.73049C7.83919 4.5559 7.60198 4.45744 7.35437 4.45668H5.1092Z" fill="#093F68"/>
  <path d="M9.43835 16.4269H3.88587C3.80952 16.4269 3.73631 16.3967 3.68233 16.343C3.62835 16.2892 3.59802 16.2163 3.59802 16.1403V13.7818C3.59802 13.7058 3.62835 13.6329 3.68233 13.5791C3.73631 13.5254 3.80952 13.4952 3.88587 13.4952H9.43835C9.51469 13.4952 9.58791 13.5254 9.64189 13.5791C9.69587 13.6329 9.7262 13.7058 9.7262 13.7818V16.1403C9.7262 16.2163 9.69587 16.2892 9.64189 16.343C9.58791 16.3967 9.51469 16.4269 9.43835 16.4269ZM4.17371 15.8538H9.15051V14.0683H4.17371V15.8538Z" fill="#093F68"/>
  <path d="M16.3293 16.4269H10.7768C10.7005 16.4269 10.6272 16.3967 10.5733 16.343C10.5193 16.2892 10.489 16.2163 10.489 16.1403V13.7818C10.489 13.7058 10.5193 13.6329 10.5733 13.5791C10.6272 13.5254 10.7005 13.4952 10.7768 13.4952H16.3293C16.4056 13.4952 16.4788 13.5254 16.5328 13.5791C16.5868 13.6329 16.6171 13.7058 16.6171 13.7818V16.1403C16.6171 16.2163 16.5868 16.2892 16.5328 16.343C16.4788 16.3967 16.4056 16.4269 16.3293 16.4269ZM11.0646 15.8538H16.0414V14.0683H11.0646V15.8538Z" fill="#093F68"/>
  <path d="M23.2231 16.4269H17.6707C17.5943 16.4269 17.5211 16.3967 17.4671 16.343C17.4131 16.2892 17.3828 16.2163 17.3828 16.1403V13.7818C17.3828 13.7058 17.4131 13.6329 17.4671 13.5791C17.5211 13.5254 17.5943 13.4952 17.6707 13.4952H23.2231C23.2995 13.4952 23.3727 13.5254 23.4267 13.5791C23.4807 13.6329 23.511 13.7058 23.511 13.7818V16.1403C23.511 16.2163 23.4807 16.2892 23.4267 16.343C23.3727 16.3967 23.2995 16.4269 23.2231 16.4269ZM17.9585 15.8538H22.9353V14.0683H17.9585V15.8538Z" fill="#093F68"/>
  <path d="M30.1141 16.4269H24.5616C24.4852 16.4269 24.412 16.3967 24.358 16.343C24.3041 16.2892 24.2737 16.2163 24.2737 16.1403V13.7818C24.2737 13.7058 24.3041 13.6329 24.358 13.5791C24.412 13.5254 24.4852 13.4952 24.5616 13.4952H30.1141C30.1904 13.4952 30.2636 13.5254 30.3176 13.5791C30.3716 13.6329 30.4019 13.7058 30.4019 13.7818V16.1403C30.4019 16.2163 30.3716 16.2892 30.3176 16.343C30.2636 16.3967 30.1904 16.4269 30.1141 16.4269ZM24.8494 15.8538H29.8262V14.0683H24.8494V15.8538Z" fill="#093F68"/>
  <path d="M5.83167 40.1043H23.7729V43.0131H5.83167V40.1043Z" fill="white"/>
  <path d="M23.7758 43.2997H5.83167C5.75533 43.2997 5.68211 43.2695 5.62813 43.2158C5.57415 43.162 5.54382 43.0891 5.54382 43.0131V40.1043C5.54382 40.0283 5.57415 39.9554 5.62813 39.9017C5.68211 39.8479 5.75533 39.8177 5.83167 39.8177H23.7758C23.8521 39.8177 23.9253 39.8479 23.9793 39.9017C24.0333 39.9554 24.0636 40.0283 24.0636 40.1043V43.0131C24.0636 43.0891 24.0333 43.162 23.9793 43.2158C23.9253 43.2695 23.8521 43.2997 23.7758 43.2997ZM6.11951 42.7265H23.4879V40.3909H6.11951V42.7265Z" fill="#093F68"/>
  <path d="M4.83289 43.0131H24.7746V49.7134H4.83289V43.0131Z" fill="#D9D9D9"/>
  <path d="M24.7718 50H4.83289C4.75655 50 4.68333 49.9698 4.62935 49.9161C4.57537 49.8623 4.54504 49.7894 4.54504 49.7134V43.0131C4.54504 42.9371 4.57537 42.8642 4.62935 42.8105C4.68333 42.7568 4.75655 42.7266 4.83289 42.7266H24.7718C24.8481 42.7266 24.9213 42.7568 24.9753 42.8105C25.0293 42.8642 25.0596 42.9371 25.0596 43.0131V49.7134C25.0596 49.7894 25.0293 49.8623 24.9753 49.9161C24.9213 49.9698 24.8481 50 24.7718 50ZM5.11785 49.4269H24.4839V43.2997H5.12073L5.11785 49.4269Z" fill="#093F68"/>
  <path d="M9.29437 25.7465C9.29437 25.7465 12.5729 20.3531 13.1889 18.9918C13.8049 17.6305 14.8958 11.512 17.5612 11.3085C20.2266 11.1051 20.975 14.5727 19.8812 18.923C18.7874 23.2733 17.898 26.1334 17.9009 31.6415" fill="#F9FDF8"/>
  <path d="M17.9009 31.9281C17.8246 31.9281 17.7513 31.8979 17.6974 31.8442C17.6434 31.7904 17.6131 31.7175 17.6131 31.6415C17.6131 26.6636 18.3442 23.7892 19.2739 20.1525C19.3814 19.734 19.4907 19.3013 19.602 18.8542C20.3418 15.9139 20.2036 13.3805 19.2451 12.2628C19.0446 12.0242 18.7874 11.8392 18.4969 11.7246C18.2063 11.61 17.8917 11.5694 17.5814 11.6066C15.7018 11.7527 14.608 15.4181 13.9517 17.6076C13.8135 18.1219 13.6463 18.6281 13.4508 19.1236C12.8377 20.4849 9.67723 25.6892 9.54194 25.9099C9.52626 25.9478 9.5026 25.9819 9.47257 26.0099C9.44253 26.0379 9.40681 26.0591 9.36782 26.0722C9.32883 26.0853 9.28747 26.0899 9.24653 26.0858C9.2056 26.0816 9.16603 26.0687 9.13051 26.0481C9.09499 26.0274 9.06433 25.9994 9.04061 25.9659C9.01689 25.9324 9.00066 25.8942 8.993 25.854C8.98535 25.8137 8.98645 25.7723 8.99623 25.7325C9.00602 25.6927 9.02426 25.6555 9.04973 25.6233C9.08139 25.5717 12.3254 20.2298 12.927 18.9001C13.1093 18.4307 13.2678 17.9524 13.4019 17.4672C14.1417 14.9854 15.2643 11.234 17.5382 11.0592C17.9391 11.0157 18.3446 11.0714 18.7187 11.2214C19.0928 11.3713 19.4239 11.611 19.6826 11.9189C20.7765 13.2086 20.9549 15.868 20.1605 19.0348L19.8323 20.3359C18.9112 23.9325 18.1859 26.7754 18.1887 31.6817C18.179 31.7505 18.1444 31.8135 18.0914 31.8588C18.0385 31.9042 17.9707 31.9288 17.9009 31.9281Z" fill="#093F68"/>
  <path d="M21.6746 47.3921C22.2119 47.3921 22.6475 46.9584 22.6475 46.4235C22.6475 45.8885 22.2119 45.4548 21.6746 45.4548C21.1372 45.4548 20.7017 45.8885 20.7017 46.4235C20.7017 46.9584 21.1372 47.3921 21.6746 47.3921Z" fill="#093F68"/>
  <path d="M21.6746 47.6787C21.4252 47.6787 21.1815 47.6051 20.9741 47.4671C20.7668 47.3292 20.6052 47.1332 20.5098 46.9038C20.4144 46.6744 20.3894 46.4221 20.438 46.1786C20.4867 45.9351 20.6068 45.7114 20.7831 45.5359C20.9594 45.3603 21.184 45.2408 21.4286 45.1923C21.6732 45.1439 21.9267 45.1688 22.157 45.2638C22.3874 45.3588 22.5843 45.5197 22.7228 45.7261C22.8614 45.9325 22.9353 46.1752 22.9353 46.4234C22.9346 46.7561 22.8015 47.0749 22.5652 47.3102C22.3289 47.5454 22.0087 47.6779 21.6746 47.6787ZM21.6746 45.7414C21.5391 45.7414 21.4066 45.7814 21.294 45.8563C21.1813 45.9313 21.0935 46.0378 21.0417 46.1624C20.9898 46.2871 20.9762 46.4242 21.0027 46.5565C21.0291 46.6888 21.0943 46.8103 21.1902 46.9057C21.286 47.0011 21.408 47.0661 21.5409 47.0924C21.6738 47.1187 21.8116 47.1052 21.9367 47.0536C22.0619 47.002 22.1689 46.9145 22.2442 46.8024C22.3195 46.6902 22.3596 46.5583 22.3596 46.4234C22.3589 46.2428 22.2865 46.0697 22.1581 45.942C22.0298 45.8142 21.856 45.7421 21.6746 45.7414Z" fill="#093F68"/>
</svg>