<svg xmlns="http://www.w3.org/2000/svg" width="42" height="42" viewBox="0 0 42 42" fill="none">
  <path d="M24.3029 29.4289L20.6972 25.8231L17.0914 29.429L15.7496 28.0872L20.6972 23.1397L25.6448 28.0872L24.3029 29.4289ZM21.646 25.4303H19.7482V19.9268H21.646L21.646 25.4303ZM20.6972 7.21156C24.2608 7.21156 27.1497 10.1004 27.1497 13.664V16.5107H14.4345V13.6925C14.4273 13.5825 14.4232 13.4539 14.4232 13.3245C14.4232 11.724 15.0497 10.2699 16.0709 9.19401L16.0685 9.19664C17.2308 7.97289 18.87 7.2116 20.6869 7.2116H20.6977H20.6972L20.6972 7.21156ZM25.2518 14.6129V13.6641C25.2518 11.1486 23.2126 9.10935 20.6971 9.10935H20.6844C19.4131 9.10935 18.266 9.64132 17.4537 10.4948L17.4519 10.4966C16.7518 11.234 16.3213 12.233 16.3213 13.3326C16.3213 13.4285 16.3246 13.5237 16.331 13.6181L16.3303 13.6053V14.613L25.2518 14.6129ZM20.6972 4.09355e-05C23.2127 4.09355e-05 25.2519 2.03926 25.2519 4.55474C25.2519 7.07022 23.2126 9.10935 20.6972 9.10935C18.1817 9.10935 16.1425 7.07018 16.1425 4.5547C16.1425 2.03922 18.1817 0 20.6972 0L20.6972 4.09355e-05ZM20.6972 7.2116C22.1646 7.2116 23.3542 6.02206 23.3542 4.55466C23.3542 3.08725 22.1646 1.89779 20.6972 1.89779C19.2299 1.89779 18.0403 3.08733 18.0403 4.55474C18.0403 6.02206 19.2299 7.2116 20.6972 7.2116ZM35.1204 32.6419C38.684 32.6419 41.5729 35.5308 41.5729 39.0944V41.941H28.8577V39.0943V39.086C28.8577 37.3147 29.5676 35.7093 30.7184 34.5387L30.7175 34.5396C31.8338 33.3844 33.3908 32.6613 35.1168 32.6419H35.1204V32.6419ZM39.6751 40.0433V39.0943C39.6751 36.5789 37.6358 34.5397 35.1204 34.5397C32.6914 34.6269 30.7554 36.6171 30.7554 39.0594C30.7554 39.0717 30.7554 39.084 30.7555 39.0963V39.0943V40.0432L39.6751 40.0433ZM35.1203 25.4303C37.6358 25.4303 39.675 27.4695 39.675 29.985C39.675 32.5005 37.6359 34.5397 35.1203 34.5397C32.6048 34.5397 30.5657 32.5005 30.5657 29.985C30.5657 27.4695 32.6048 25.4303 35.1203 25.4303H35.1203ZM35.1203 32.6419C36.5877 32.6419 37.7773 31.4523 37.7773 29.9849C37.7773 28.5175 36.5877 27.3281 35.1203 27.3281C33.653 27.3281 32.4634 28.5176 32.4634 29.985C32.4634 31.4523 33.653 32.6419 35.1203 32.6419ZM6.27399 32.6419C9.83759 32.6419 12.7264 35.5307 12.7264 39.0943V41.941H0.0113863V39.1228C0.0040958 39.0128 0 38.8842 0 38.7548C0 37.1543 0.626535 35.7002 1.64774 34.6243L1.64528 34.6269C2.80767 33.4031 4.44681 32.6419 6.26371 32.6419H6.27453H6.27399ZM10.8287 40.0432V39.0943C10.8287 36.5789 8.78947 34.5397 6.27399 34.5397H6.2613C4.98996 34.5397 3.84289 35.0716 3.03053 35.9251L3.02876 35.927C2.32871 36.6642 1.89816 37.6633 1.89816 38.7629C1.89816 38.8588 1.90144 38.954 1.90787 39.0483L1.90717 39.0356V40.0433L10.8287 40.0432ZM6.27399 25.4303C8.78947 25.4303 10.8287 27.4695 10.8287 29.985C10.8287 32.5005 8.78951 34.5397 6.27399 34.5397C3.75847 34.5397 1.71934 32.5005 1.71934 29.985C1.71934 27.4695 3.75851 25.4303 6.27399 25.4303ZM6.27399 32.6419C7.74136 32.6419 8.93094 31.4523 8.93094 29.9849C8.93094 28.5175 7.74136 27.3281 6.27399 27.3281C4.80663 27.3281 3.61705 28.5176 3.61705 29.985C3.61705 31.4523 4.80663 32.6419 6.27399 32.6419Z" fill="black"/>
</svg>