<svg xmlns="http://www.w3.org/2000/svg" width="44" height="44" viewBox="0 0 44 44" fill="none">
  <path d="M0 25.5H7V39.5H0" stroke="black" stroke-width="2"/>
  <path d="M7 27.25H14C14.9283 27.25 15.8185 27.6187 16.4749 28.2751C17.1313 28.9315 17.5 29.8217 17.5 30.75H25.375C26.0712 30.75 26.7389 31.0266 27.2312 31.5188C27.7234 32.0111 28 32.6788 28 33.375C28 34.0712 27.7234 34.7389 27.2312 35.2312C26.7389 35.7234 26.0712 36 25.375 36H15.75" stroke="black" stroke-width="2"/>
  <path d="M28 33.2L33.8013 29.7C34.595 29.2272 35.5024 28.9791 36.4263 28.9825C37.0907 28.9818 37.7487 29.1121 38.3628 29.3658C38.9768 29.6196 39.5349 29.9918 40.005 30.4613L42 32.5L26.3112 41.915C25.1238 42.625 23.7661 43 22.3825 43C21.4678 42.9993 20.5607 42.8333 19.705 42.51L7 37.75" stroke="black" stroke-width="2"/>
  <path d="M26.25 25.5C33.0155 25.5 38.5 20.0155 38.5 13.25C38.5 6.48451 33.0155 1 26.25 1C19.4845 1 14 6.48451 14 13.25C14 20.0155 19.4845 25.5 26.25 25.5Z" stroke="black" stroke-width="2"/>
  <path d="M24.7888 13.25C24.0425 13.2091 23.3402 12.8838 22.8263 12.3411C22.3125 11.7983 22.0261 11.0793 22.0261 10.3319C22.0261 9.58443 22.3125 8.86541 22.8263 8.32264C23.3402 7.77987 24.0425 7.45461 24.7888 7.41373" stroke="black" stroke-width="2"/>
  <path d="M27.7113 13.25C28.4576 13.2909 29.1599 13.6161 29.6737 14.1589C30.1876 14.7017 30.474 15.4207 30.474 16.1681C30.474 16.9155 30.1876 17.6346 29.6737 18.1773C29.1599 18.7201 28.4576 19.0454 27.7113 19.0863" stroke="black" stroke-width="2"/>
  <path d="M26.25 4.5V7.41375" stroke="black" stroke-width="2"/>
  <path d="M26.25 19.0862V22" stroke="black" stroke-width="2"/>
  <path d="M24.7887 13.25H27.7112" stroke="black" stroke-width="2"/>
  <path d="M30.6249 8.87498C30.6249 8.87498 29.1637 7.41373 27.7112 7.41373H24.7887" stroke="black" stroke-width="2"/>
  <path d="M21.875 17.625C21.875 17.625 23.3363 19.0863 24.7888 19.0863H27.7112" stroke="black" stroke-width="2"/>
</svg>