<svg width="19" height="19" viewBox="0 0 19 19" fill="none" xmlns="http://www.w3.org/2000/svg">
<g id="dribbble" clip-path="url(#clip0_205_2500)">
<path id="Vector" d="M9.50016 17.4173C13.8724 17.4173 17.4168 13.8729 17.4168 9.50065C17.4168 5.1284 13.8724 1.58398 9.50016 1.58398C5.12791 1.58398 1.5835 5.1284 1.5835 9.50065C1.5835 13.8729 5.12791 17.4173 9.50016 17.4173Z" stroke="#8AAF92" stroke-width="2" stroke-linecap="round" stroke-linejoin="round"/>
<path id="Vector_2" d="M6.77667 2.17773C10.2363 6.95148 11.5425 9.63523 13.1338 16.2061M15.1446 4.03023C12.1996 7.47398 8.06708 8.51107 1.78125 8.66148M17.2188 10.1657C14.4479 9.4294 11.97 9.51648 10.1413 10.1657C8.09875 10.894 6.175 12.4298 4.25125 15.169" stroke="#8AAF92" stroke-width="2" stroke-linecap="round" stroke-linejoin="round"/>
</g>
<defs>
<clipPath id="clip0_205_2500">
<rect width="19" height="19" fill="white"/>
</clipPath>
</defs>
</svg>
