<svg width="24" height="24" viewBox="8 8 24 24" fill="none" xmlns="http://www.w3.org/2000/svg">
<path d="M28 30V27.6667C28 26.429 27.5786 25.242 26.8284 24.3668C26.0783 23.4917 25.0609 23 24 23H16C14.9391 23 13.9217 23.4917 13.1716 24.3668C12.4214 25.242 12 26.429 12 27.6667V30" stroke="#33583B" stroke-width="2" stroke-linecap="round" stroke-linejoin="round"/>
<path d="M20 19C22.2091 19 24 17.2091 24 15C24 12.7909 22.2091 11 20 11C17.7909 11 16 12.7909 16 15C16 17.2091 17.7909 19 20 19Z" stroke="#33583B" stroke-width="2" stroke-linecap="round" stroke-linejoin="round"/>
<line x1="12" y1="30" x2="28" y2="30" stroke="#33583B" stroke-width="2"/>
</svg>
