<svg width="19" height="19" viewBox="0 0 19 19" fill="none" xmlns="http://www.w3.org/2000/svg">
<mask id="path-1-inside-1_1101_697" fill="white">
<path d="M2.96875 5.4707C2.96875 4.91842 3.41647 4.4707 3.96875 4.4707H15.0312C15.5835 4.4707 16.0312 4.91842 16.0312 5.4707V19.0001H2.96875V5.4707Z"/>
</mask>
<path d="M2.96875 5.4707C2.96875 4.91842 3.41647 4.4707 3.96875 4.4707H15.0312C15.5835 4.4707 16.0312 4.91842 16.0312 5.4707V19.0001H2.96875V5.4707Z" stroke="white" stroke-width="4" mask="url(#path-1-inside-1_1101_697)"/>
<rect x="7.625" y="15.5884" width="3.15625" height="2.35294" rx="0.5" stroke="white"/>
<rect x="6.4375" y="8.32373" width="1.83333" height="1.34568" rx="0.5" stroke="white"/>
<rect x="6.4375" y="11.6763" width="1.83333" height="1.34568" rx="0.5" stroke="white"/>
<rect x="10.5938" y="11.6763" width="1.83333" height="1.34568" rx="0.5" stroke="white"/>
<rect x="10.5938" y="8.32373" width="1.83333" height="1.34568" rx="0.5" stroke="white"/>
<path d="M9.5 0L17.7272 5.02941H1.27276L9.5 0Z" fill="white"/>
</svg>
