<svg width="19" height="19" viewBox="0 0 19 19" fill="none" xmlns="http://www.w3.org/2000/svg">
<g id="bell">
<path id="Vector" d="M14.25 6.3335C14.25 5.07372 13.7496 3.86554 12.8588 2.97474C11.968 2.08394 10.7598 1.5835 9.5 1.5835C8.24022 1.5835 7.03204 2.08394 6.14124 2.97474C5.25045 3.86554 4.75 5.07372 4.75 6.3335C4.75 11.8752 2.375 13.4585 2.375 13.4585H16.625C16.625 13.4585 14.25 11.8752 14.25 6.3335Z" stroke="white" stroke-width="2" stroke-linecap="round" stroke-linejoin="round"/>
<path id="Vector_2" d="M10.87 16.625C10.7308 16.8649 10.5311 17.0641 10.2907 17.2025C10.0503 17.341 9.77783 17.4139 9.50044 17.4139C9.22306 17.4139 8.95054 17.341 8.71018 17.2025C8.46982 17.0641 8.27004 16.8649 8.13086 16.625" stroke="white" stroke-width="2" stroke-linecap="round" stroke-linejoin="round"/>
</g>
</svg>
