<svg width="19" height="19" viewBox="0 0 19 19" fill="none" xmlns="http://www.w3.org/2000/svg">
<g id="settings" clip-path="url(#clip0_1101_708)">
<path id="Vector" d="M9.5 11.875C10.8117 11.875 11.875 10.8117 11.875 9.5C11.875 8.18832 10.8117 7.125 9.5 7.125C8.18832 7.125 7.125 8.18832 7.125 9.5C7.125 10.8117 8.18832 11.875 9.5 11.875Z" stroke="white" stroke-width="2" stroke-linecap="round" stroke-linejoin="round"/>
<path id="Vector_2" d="M15.3577 11.8748C15.2523 12.1136 15.2209 12.3785 15.2674 12.6353C15.314 12.8921 15.4364 13.1291 15.6189 13.3157L15.6664 13.3632C15.8136 13.5102 15.9304 13.6848 16.0101 13.8771C16.0898 14.0693 16.1308 14.2753 16.1308 14.4834C16.1308 14.6915 16.0898 14.8975 16.0101 15.0897C15.9304 15.2819 15.8136 15.4565 15.6664 15.6036C15.5194 15.7508 15.3448 15.8676 15.1525 15.9473C14.9603 16.0269 14.7543 16.068 14.5462 16.068C14.3381 16.068 14.1321 16.0269 13.9399 15.9473C13.7477 15.8676 13.5731 15.7508 13.426 15.6036L13.3785 15.5561C13.1919 15.3736 12.955 15.2511 12.6981 15.2046C12.4413 15.158 12.1765 15.1895 11.9377 15.2948C11.7035 15.3952 11.5038 15.5618 11.3632 15.7742C11.2225 15.9866 11.147 16.2355 11.146 16.4903V16.6248C11.146 17.0448 10.9792 17.4475 10.6823 17.7444C10.3853 18.0414 9.98261 18.2082 9.56268 18.2082C9.14276 18.2082 8.74003 18.0414 8.4431 17.7444C8.14616 17.4475 7.97935 17.0448 7.97935 16.6248V16.5536C7.97322 16.2915 7.8884 16.0374 7.73592 15.8242C7.58344 15.611 7.37035 15.4486 7.12435 15.3582C6.88557 15.2528 6.6207 15.2214 6.36388 15.2679C6.10707 15.3145 5.87009 15.4369 5.68352 15.6194L5.63602 15.6669C5.48897 15.8141 5.31434 15.9309 5.12213 16.0106C4.92992 16.0903 4.72388 16.1313 4.51581 16.1313C4.30773 16.1313 4.1017 16.0903 3.90948 16.0106C3.71727 15.9309 3.54265 15.8141 3.3956 15.6669C3.24839 15.5199 3.1316 15.3452 3.05192 15.153C2.97224 14.9608 2.93123 14.7548 2.93123 14.5467C2.93123 14.3386 2.97224 14.1326 3.05192 13.9404C3.1316 13.7482 3.24839 13.5736 3.3956 13.4265L3.4431 13.379C3.62561 13.1924 3.74804 12.9554 3.7946 12.6986C3.84117 12.4418 3.80973 12.1769 3.70435 11.9382C3.60399 11.704 3.43736 11.5043 3.22497 11.3637C3.01257 11.223 2.76368 11.1475 2.50893 11.1465H2.37435C1.95442 11.1465 1.5517 10.9797 1.25476 10.6828C0.957831 10.3858 0.791016 9.9831 0.791016 9.56317C0.791016 9.14324 0.957831 8.74052 1.25476 8.44358C1.5517 8.14665 1.95442 7.97984 2.37435 7.97984H2.4456C2.70764 7.97371 2.96177 7.88889 3.17496 7.73641C3.38815 7.58393 3.55054 7.37084 3.64102 7.12484C3.7464 6.88606 3.77783 6.62118 3.73127 6.36437C3.6847 6.10756 3.56227 5.87058 3.37977 5.684L3.33227 5.6365C3.18505 5.48945 3.06827 5.31483 2.98859 5.12262C2.90891 4.9304 2.86789 4.72437 2.86789 4.5163C2.86789 4.30822 2.90891 4.10219 2.98859 3.90997C3.06827 3.71776 3.18505 3.54314 3.33227 3.39609C3.47931 3.24887 3.65394 3.13209 3.84615 3.05241C4.03837 2.97273 4.2444 2.93172 4.45247 2.93172C4.66055 2.93172 4.86658 2.97273 5.0588 3.05241C5.25101 3.13209 5.42563 3.24887 5.57268 3.39609L5.62018 3.44359C5.80676 3.6261 6.04374 3.74853 6.30055 3.79509C6.55736 3.84166 6.82224 3.81022 7.06102 3.70484H7.12435C7.3585 3.60448 7.5582 3.43785 7.69886 3.22546C7.83952 3.01306 7.915 2.76417 7.91602 2.50942V2.37484C7.91602 1.95491 8.08283 1.55218 8.37976 1.25525C8.6767 0.958319 9.07942 0.791504 9.49935 0.791504C9.91927 0.791504 10.322 0.958319 10.6189 1.25525C10.9159 1.55218 11.0827 1.95491 11.0827 2.37484V2.44609C11.0837 2.70083 11.1592 2.94973 11.2998 3.16212C11.4405 3.37452 11.6402 3.54115 11.8743 3.6415C12.1131 3.74689 12.378 3.77832 12.6348 3.73176C12.8916 3.68519 13.1286 3.56276 13.3152 3.38025L13.3627 3.33275C13.5097 3.18554 13.6844 3.06876 13.8766 2.98908C14.0688 2.9094 14.2748 2.86838 14.4829 2.86838C14.691 2.86838 14.897 2.9094 15.0892 2.98908C15.2814 3.06876 15.456 3.18554 15.6031 3.33275C15.7503 3.4798 15.8671 3.65443 15.9468 3.84664C16.0265 4.03885 16.0675 4.24489 16.0675 4.45296C16.0675 4.66104 16.0265 4.86707 15.9468 5.05928C15.8671 5.2515 15.7503 5.42612 15.6031 5.57317L15.5556 5.62067C15.3731 5.80725 15.2507 6.04422 15.2041 6.30104C15.1575 6.55785 15.189 6.82272 15.2943 7.0615V7.12484C15.3947 7.35899 15.5613 7.55868 15.7737 7.69934C15.9861 7.84 16.235 7.91549 16.4898 7.9165H16.6243C17.0443 7.9165 17.447 8.08332 17.7439 8.38025C18.0409 8.67718 18.2077 9.07991 18.2077 9.49984C18.2077 9.91976 18.0409 10.3225 17.7439 10.6194C17.447 10.9164 17.0443 11.0832 16.6243 11.0832H16.5531C16.2984 11.0842 16.0495 11.1597 15.8371 11.3003C15.6247 11.441 15.458 11.6407 15.3577 11.8748Z" stroke="white" stroke-width="2" stroke-linecap="round" stroke-linejoin="round"/>
</g>
<defs>
<clipPath id="clip0_1101_708">
<rect width="19" height="19" fill="white"/>
</clipPath>
</defs>
</svg>
