<svg width="19" height="19" viewBox="0 0 19 19" fill="none" xmlns="http://www.w3.org/2000/svg">
<g id="&#240;&#159;&#166;&#134; icon &#34;Forest&#34;">
<path id="Vector" fill-rule="evenodd" clip-rule="evenodd" d="M9.5 6.33333C9.5 9.59326 7.65278 12.278 5.27778 12.628V16.8889V17.4167H13.7222V12.6908H11.2273C10.2734 12.6908 9.5 11.9175 9.5 10.9635C9.5 10.2882 9.8876 9.70335 10.4525 9.41936C10.3947 9.22445 10.3637 9.01809 10.3637 8.80444C10.3637 7.89371 10.9275 7.11471 11.7252 6.79746C11.6819 6.60973 11.6591 6.41429 11.6591 6.21347C11.6591 4.78251 12.819 3.62256 14.25 3.62256C15.6809 3.62256 16.8409 4.78251 16.8409 6.21347C16.8409 6.41424 16.8181 6.60973 16.7748 6.79741C17.5725 7.11466 18.1364 7.89371 18.1364 8.80444C18.1364 9.01809 18.1054 9.2245 18.0475 9.41936C18.6124 9.70335 19 10.2882 19 10.9635C19 11.9175 18.2267 12.6908 17.2727 12.6908H14.7778V17.4167H18.2083C18.6455 17.4167 19 17.7711 19 18.2083C19 18.6455 18.6455 19 18.2083 19H0.791667C0.35444 19 0 18.6455 0 18.2083C0 17.7711 0.35444 17.4167 0.791667 17.4167H4.22222V16.8889V12.628C1.84725 12.278 0 9.59326 0 6.33333C0 2.83554 2.12663 0 4.75 0C7.37337 0 9.5 2.83554 9.5 6.33333Z" fill="white"/>
</g>
</svg>
