<svg width="18" height="18" viewBox="0 0 18 18" fill="none" xmlns="http://www.w3.org/2000/svg">
<mask id="path-1-inside-1_1101_690" fill="white">
<path d="M0 1C0 0.447715 0.447715 0 1 0H17C17.5523 0 18 0.447715 18 1V18H0V1Z"/>
</mask>
<path d="M0 1C0 0.447715 0.447715 0 1 0H17C17.5523 0 18 0.447715 18 1V18H0V1Z" stroke="white" stroke-width="4" mask="url(#path-1-inside-1_1101_690)"/>
<mask id="path-2-inside-2_1101_690" fill="white">
<rect x="6.46094" y="12.3335" width="5.07692" height="5.66666" rx="1"/>
</mask>
<rect x="6.46094" y="12.3335" width="5.07692" height="5.66666" rx="1" stroke="white" stroke-width="4" mask="url(#path-2-inside-2_1101_690)"/>
<rect x="4.19336" y="4.16699" width="2.69231" height="1.66667" rx="0.5" stroke="white"/>
<rect x="4.19336" y="8.16699" width="2.69231" height="1.66667" rx="0.5" stroke="white"/>
<rect x="11.1152" y="8.16699" width="2.69231" height="1.66667" rx="0.5" stroke="white"/>
<rect x="11.1152" y="4.16699" width="2.69231" height="1.66667" rx="0.5" stroke="white"/>
</svg>
