<svg width="19" height="19" viewBox="0 0 19 19" fill="none" xmlns="http://www.w3.org/2000/svg">
<g id="briefcase">
<path id="Vector" d="M15.834 5.5415H3.16732C2.29287 5.5415 1.58398 6.25039 1.58398 7.12484V15.0415C1.58398 15.916 2.29287 16.6248 3.16732 16.6248H15.834C16.7084 16.6248 17.4173 15.916 17.4173 15.0415V7.12484C17.4173 6.25039 16.7084 5.5415 15.834 5.5415Z" stroke="white" stroke-width="2" stroke-linecap="round" stroke-linejoin="round"/>
<path id="Vector_2" d="M12.6673 16.625V3.95833C12.6673 3.53841 12.5005 3.13568 12.2036 2.83875C11.9066 2.54181 11.5039 2.375 11.084 2.375H7.91732C7.49739 2.375 7.09466 2.54181 6.79773 2.83875C6.5008 3.13568 6.33398 3.53841 6.33398 3.95833V16.625" stroke="white" stroke-width="2" stroke-linecap="round" stroke-linejoin="round"/>
</g>
</svg>
