<svg width="19" height="19" viewBox="0 0 19 19" fill="none" xmlns="http://www.w3.org/2000/svg">
<g id="file-text">
<path id="Vector" d="M11.0827 1.5835H4.74935C4.32942 1.5835 3.9267 1.75031 3.62976 2.04724C3.33283 2.34418 3.16602 2.7469 3.16602 3.16683V15.8335C3.16602 16.2534 3.33283 16.6561 3.62976 16.9531C3.9267 17.25 4.32942 17.4168 4.74935 17.4168H14.2493C14.6693 17.4168 15.072 17.25 15.3689 16.9531C15.6659 16.6561 15.8327 16.2534 15.8327 15.8335V6.3335L11.0827 1.5835Z" stroke="white" stroke-width="2" stroke-linecap="round" stroke-linejoin="round"/>
<path id="Vector_2" d="M11.084 1.5835V6.3335H15.834" stroke="white" stroke-linecap="round" stroke-linejoin="round"/>
<path id="Vector_3" d="M12.6673 10.2915H6.33398" stroke="white" stroke-linecap="round" stroke-linejoin="round"/>
<path id="Vector_4" d="M12.6673 13.4585H6.33398" stroke="white" stroke-linecap="round" stroke-linejoin="round"/>
<path id="Vector_5" d="M7.91732 7.125H7.12565H6.33398" stroke="white" stroke-linecap="round" stroke-linejoin="round"/>
</g>
</svg>
