<svg width="19" height="19" viewBox="0 0 19 19" fill="none" xmlns="http://www.w3.org/2000/svg">
<g id="shopping-bag">
<path id="Vector" d="M4.75 1.5835L2.375 4.75016V15.8335C2.375 16.2534 2.54181 16.6561 2.83875 16.9531C3.13568 17.25 3.53841 17.4168 3.95833 17.4168H15.0417C15.4616 17.4168 15.8643 17.25 16.1613 16.9531C16.4582 16.6561 16.625 16.2534 16.625 15.8335V4.75016L14.25 1.5835H4.75Z" stroke="white" stroke-width="2" stroke-linecap="round" stroke-linejoin="round"/>
<path id="Vector_2" d="M2.375 4.75H16.625" stroke="white" stroke-width="2" stroke-linecap="round" stroke-linejoin="round"/>
<path id="Vector_3" d="M12.6673 7.9165C12.6673 8.75636 12.3337 9.56181 11.7398 10.1557C11.146 10.7495 10.3405 11.0832 9.50065 11.0832C8.6608 11.0832 7.85534 10.7495 7.26148 10.1557C6.66761 9.56181 6.33398 8.75636 6.33398 7.9165" stroke="white" stroke-width="2" stroke-linecap="round" stroke-linejoin="round"/>
</g>
</svg>
