<svg width="19" height="19" viewBox="0 0 19 19" fill="none" xmlns="http://www.w3.org/2000/svg">
<g id="shopping-cart" clip-path="url(#clip0_1101_715)">
<path id="Vector" d="M7.12565 17.4168C7.56288 17.4168 7.91732 17.0624 7.91732 16.6252C7.91732 16.1879 7.56288 15.8335 7.12565 15.8335C6.68843 15.8335 6.33398 16.1879 6.33398 16.6252C6.33398 17.0624 6.68843 17.4168 7.12565 17.4168Z" stroke="white" stroke-width="2" stroke-linecap="round" stroke-linejoin="round"/>
<path id="Vector_2" d="M15.8327 17.4168C16.2699 17.4168 16.6243 17.0624 16.6243 16.6252C16.6243 16.1879 16.2699 15.8335 15.8327 15.8335C15.3955 15.8335 15.041 16.1879 15.041 16.6252C15.041 17.0624 15.3955 17.4168 15.8327 17.4168Z" stroke="white" stroke-width="2" stroke-linecap="round" stroke-linejoin="round"/>
<path id="Vector_3" d="M0.791016 0.791504H3.95768L6.07935 11.3919C6.15174 11.7564 6.35003 12.0838 6.63949 12.3168C6.92895 12.5498 7.29115 12.6736 7.66268 12.6665H15.3577C15.7292 12.6736 16.0914 12.5498 16.3809 12.3168C16.6703 12.0838 16.8686 11.7564 16.941 11.3919L18.2077 4.74984H4.74935" stroke="white" stroke-width="2" stroke-linecap="round" stroke-linejoin="round"/>
</g>
<defs>
<clipPath id="clip0_1101_715">
<rect width="19" height="19" fill="white"/>
</clipPath>
</defs>
</svg>
