<svg width="19" height="19" viewBox="0 0 19 19" fill="none" xmlns="http://www.w3.org/2000/svg">
<g id="dribbble" clip-path="url(#clip0_1101_724)">
<path id="Vector" d="M9.50065 17.4168C13.8729 17.4168 17.4173 13.8724 17.4173 9.50016C17.4173 5.12791 13.8729 1.5835 9.50065 1.5835C5.1284 1.5835 1.58398 5.12791 1.58398 9.50016C1.58398 13.8724 5.1284 17.4168 9.50065 17.4168Z" stroke="white" stroke-width="2" stroke-linecap="round" stroke-linejoin="round"/>
<path id="Vector_2" d="M6.77667 2.17725C10.2363 6.951 11.5425 9.63475 13.1338 16.2056M15.1446 4.02975C12.1996 7.4735 8.06708 8.51058 1.78125 8.661M17.2188 10.1652C14.4479 9.42891 11.97 9.516 10.1413 10.1652C8.09875 10.8935 6.175 12.4293 4.25125 15.1685" stroke="white" stroke-width="2" stroke-linecap="round" stroke-linejoin="round"/>
</g>
<defs>
<clipPath id="clip0_1101_724">
<rect width="19" height="19" fill="white"/>
</clipPath>
</defs>
</svg>
