<svg width="19" height="19" viewBox="0 0 19 19" fill="none" xmlns="http://www.w3.org/2000/svg">
<g id="&#240;&#159;&#166;&#134; icon &#34;Warehouse&#34;">
<path id="Vector" d="M14.9625 13.0622H4.04937C3.91875 13.0622 3.81187 13.1958 3.81187 13.3591L3.80891 15.1404C3.80891 15.3037 3.91578 15.4373 4.04641 15.4373H14.9625C15.0931 15.4373 15.2 15.3037 15.2 15.1404V13.3591C15.2 13.1958 15.0931 13.0622 14.9625 13.0622ZM14.9625 16.6249H4.04047C3.90984 16.6249 3.80297 16.7585 3.80297 16.9218L3.8 18.7031C3.8 18.8664 3.90687 19 4.0375 19H14.9625C15.0931 19 15.2 18.8664 15.2 18.7031V16.9218C15.2 16.7585 15.0931 16.6249 14.9625 16.6249ZM14.9625 9.49954H4.05531C3.92469 9.49954 3.81781 9.63314 3.81781 9.79643L3.81484 11.5778C3.81484 11.7411 3.92172 11.8747 4.05234 11.8747H14.9625C15.0931 11.8747 15.2 11.7411 15.2 11.5778V9.79643C15.2 9.63314 15.0931 9.49954 14.9625 9.49954ZM18.1242 4.34108L10.0462 0.136386C9.87262 0.0463464 9.68649 0 9.49852 0C9.31054 0 9.12441 0.0463464 8.95078 0.136386L0.875781 4.34108C0.347344 4.61942 0 5.26515 0 5.98511V18.7031C0 18.8664 0.106875 19 0.2375 19H2.6125C2.74312 19 2.85 18.8664 2.85 18.7031V9.49954C2.85 8.84638 3.28344 8.31198 3.81781 8.31198H15.1822C15.7166 8.31198 16.15 8.84638 16.15 9.49954V18.7031C16.15 18.8664 16.2569 19 16.3875 19H18.7625C18.8931 19 19 18.8664 19 18.7031V5.98511C19 5.26515 18.6527 4.61942 18.1242 4.34108Z" fill="white"/>
</g>
</svg>
